<mxfile host="app.diagrams.net" modified="2022-11-23T03:14:54.990Z" agent="5.0 (Macintosh; Intel Mac OS X 10_15_7) AppleWebKit/605.1.15 (KHTML, like Gecko) Version/15.1 Safari/605.1.15" etag="mGvD7BFyeNzZ_lEFVDox" version="20.5.3" type="github">
  <diagram id="spy6YF9YpeJmtcY0xpdL" name="第 1 页">
    <mxGraphModel dx="1186" dy="679" grid="0" gridSize="10" guides="1" tooltips="1" connect="1" arrows="1" fold="1" page="0" pageScale="1" pageWidth="827" pageHeight="1169" math="1" shadow="0">
      <root>
        <mxCell id="0" />
        <mxCell id="1" parent="0" />
        <mxCell id="YGGrTB0Uita2elQhQ-9G-115" value="" style="group" parent="1" vertex="1" connectable="0">
          <mxGeometry x="208" y="320" width="232" height="410" as="geometry" />
        </mxCell>
        <mxCell id="YGGrTB0Uita2elQhQ-9G-7" value="" style="rounded=0;whiteSpace=wrap;html=1;container=0;" parent="YGGrTB0Uita2elQhQ-9G-115" vertex="1">
          <mxGeometry y="120" width="17.16" height="180" as="geometry" />
        </mxCell>
        <mxCell id="YGGrTB0Uita2elQhQ-9G-9" value="" style="ellipse;whiteSpace=wrap;html=1;aspect=fixed;fillColor=#fff2cc;strokeColor=#d6b656;container=0;" parent="YGGrTB0Uita2elQhQ-9G-115" vertex="1">
          <mxGeometry x="3.129327217125393" y="126.60779661016954" width="10.910886194387448" height="10.910886194387448" as="geometry" />
        </mxCell>
        <mxCell id="YGGrTB0Uita2elQhQ-9G-10" value="" style="ellipse;whiteSpace=wrap;html=1;aspect=fixed;fillColor=#fff2cc;strokeColor=#d6b656;container=0;" parent="YGGrTB0Uita2elQhQ-9G-115" vertex="1">
          <mxGeometry x="3.129327217125393" y="143.76033898305093" width="10.910886194387448" height="10.910886194387448" as="geometry" />
        </mxCell>
        <mxCell id="YGGrTB0Uita2elQhQ-9G-11" value="" style="ellipse;whiteSpace=wrap;html=1;aspect=fixed;fillColor=#fff2cc;strokeColor=#d6b656;container=0;" parent="YGGrTB0Uita2elQhQ-9G-115" vertex="1">
          <mxGeometry x="3.129327217125393" y="160.3002905569008" width="10.910886194387448" height="10.910886194387448" as="geometry" />
        </mxCell>
        <mxCell id="YGGrTB0Uita2elQhQ-9G-12" value="" style="ellipse;whiteSpace=wrap;html=1;aspect=fixed;fillColor=#fff2cc;strokeColor=#d6b656;container=0;" parent="YGGrTB0Uita2elQhQ-9G-115" vertex="1">
          <mxGeometry x="3.129327217125393" y="177.22765133171924" width="10.910886194387448" height="10.910886194387448" as="geometry" />
        </mxCell>
        <mxCell id="YGGrTB0Uita2elQhQ-9G-17" value="" style="ellipse;whiteSpace=wrap;html=1;aspect=fixed;fillColor=#fff2cc;strokeColor=#d6b656;container=0;" parent="YGGrTB0Uita2elQhQ-9G-115" vertex="1">
          <mxGeometry x="3.129327217125393" y="251.257554479419" width="10.910886194387448" height="10.910886194387448" as="geometry" />
        </mxCell>
        <mxCell id="YGGrTB0Uita2elQhQ-9G-18" value="" style="ellipse;whiteSpace=wrap;html=1;aspect=fixed;fillColor=#fff2cc;strokeColor=#d6b656;container=0;" parent="YGGrTB0Uita2elQhQ-9G-115" vertex="1">
          <mxGeometry x="3.129327217125393" y="267.79750605326876" width="10.910886194387448" height="10.910886194387448" as="geometry" />
        </mxCell>
        <mxCell id="YGGrTB0Uita2elQhQ-9G-19" value="" style="ellipse;whiteSpace=wrap;html=1;aspect=fixed;fillColor=#fff2cc;strokeColor=#d6b656;container=0;" parent="YGGrTB0Uita2elQhQ-9G-115" vertex="1">
          <mxGeometry x="3.129327217125393" y="283.7248668280872" width="10.910886194387448" height="10.910886194387448" as="geometry" />
        </mxCell>
        <mxCell id="YGGrTB0Uita2elQhQ-9G-70" value="" style="endArrow=none;html=1;rounded=0;exitX=1;exitY=0;exitDx=0;exitDy=0;entryX=0;entryY=0;entryDx=0;entryDy=0;" parent="YGGrTB0Uita2elQhQ-9G-115" source="YGGrTB0Uita2elQhQ-9G-7" target="YGGrTB0Uita2elQhQ-9G-20" edge="1">
          <mxGeometry width="50" height="50" relative="1" as="geometry">
            <mxPoint x="17.159999999999997" y="140" as="sourcePoint" />
            <mxPoint x="92" y="150" as="targetPoint" />
          </mxGeometry>
        </mxCell>
        <mxCell id="YGGrTB0Uita2elQhQ-9G-71" value="" style="endArrow=none;html=1;rounded=0;entryX=1;entryY=1;entryDx=0;entryDy=0;exitX=0;exitY=1;exitDx=0;exitDy=0;" parent="YGGrTB0Uita2elQhQ-9G-115" source="YGGrTB0Uita2elQhQ-9G-20" target="YGGrTB0Uita2elQhQ-9G-7" edge="1">
          <mxGeometry width="50" height="50" relative="1" as="geometry">
            <mxPoint x="208" y="260" as="sourcePoint" />
            <mxPoint x="258" y="210" as="targetPoint" />
          </mxGeometry>
        </mxCell>
        <mxCell id="YGGrTB0Uita2elQhQ-9G-83" value="" style="ellipse;whiteSpace=wrap;html=1;aspect=fixed;fillColor=#fff2cc;strokeColor=#d6b656;container=0;" parent="YGGrTB0Uita2elQhQ-9G-115" vertex="1">
          <mxGeometry x="3.129327217125393" y="235.257554479419" width="10.910886194387448" height="10.910886194387448" as="geometry" />
        </mxCell>
        <mxCell id="YGGrTB0Uita2elQhQ-9G-84" value="" style="endArrow=none;dashed=1;html=1;dashPattern=1 3;strokeWidth=2;rounded=0;" parent="YGGrTB0Uita2elQhQ-9G-115" edge="1">
          <mxGeometry width="50" height="50" relative="1" as="geometry">
            <mxPoint x="9" y="224" as="sourcePoint" />
            <mxPoint x="9" y="194" as="targetPoint" />
          </mxGeometry>
        </mxCell>
        <mxCell id="YGGrTB0Uita2elQhQ-9G-112" value="" style="group" parent="YGGrTB0Uita2elQhQ-9G-115" vertex="1" connectable="0">
          <mxGeometry x="94" y="153" width="14.21" height="115" as="geometry" />
        </mxCell>
        <mxCell id="YGGrTB0Uita2elQhQ-9G-20" value="" style="rounded=0;whiteSpace=wrap;html=1;container=0;" parent="YGGrTB0Uita2elQhQ-9G-112" vertex="1">
          <mxGeometry width="14.209999999999981" height="115" as="geometry" />
        </mxCell>
        <mxCell id="YGGrTB0Uita2elQhQ-9G-23" value="" style="ellipse;whiteSpace=wrap;html=1;aspect=fixed;fillColor=#e1d5e7;strokeColor=#9673a6;container=0;" parent="YGGrTB0Uita2elQhQ-9G-112" vertex="1">
          <mxGeometry x="2.584725287454611" y="3.68965063991707" width="8.962513659675404" height="8.962513659675404" as="geometry" />
        </mxCell>
        <mxCell id="YGGrTB0Uita2elQhQ-9G-24" value="" style="ellipse;whiteSpace=wrap;html=1;aspect=fixed;fillColor=#e1d5e7;strokeColor=#9673a6;container=0;" parent="YGGrTB0Uita2elQhQ-9G-112" vertex="1">
          <mxGeometry x="2.584725287454611" y="16.772839847803564" width="8.962513659675404" height="8.962513659675404" as="geometry" />
        </mxCell>
        <mxCell id="YGGrTB0Uita2elQhQ-9G-25" value="" style="ellipse;whiteSpace=wrap;html=1;aspect=fixed;fillColor=#e1d5e7;strokeColor=#9673a6;container=0;" parent="YGGrTB0Uita2elQhQ-9G-112" vertex="1">
          <mxGeometry x="2.584725287454611" y="29.85602905569015" width="8.962513659675404" height="8.962513659675404" as="geometry" />
        </mxCell>
        <mxCell id="YGGrTB0Uita2elQhQ-9G-79" value="" style="ellipse;whiteSpace=wrap;html=1;aspect=fixed;fillColor=#e1d5e7;strokeColor=#9673a6;container=0;" parent="YGGrTB0Uita2elQhQ-9G-112" vertex="1">
          <mxGeometry x="2.584725287454611" y="76.39607921134565" width="8.962513659675404" height="8.962513659675404" as="geometry" />
        </mxCell>
        <mxCell id="YGGrTB0Uita2elQhQ-9G-80" value="" style="ellipse;whiteSpace=wrap;html=1;aspect=fixed;fillColor=#e1d5e7;strokeColor=#9673a6;container=0;" parent="YGGrTB0Uita2elQhQ-9G-112" vertex="1">
          <mxGeometry x="2.584725287454611" y="89.47926841923214" width="8.962513659675404" height="8.962513659675404" as="geometry" />
        </mxCell>
        <mxCell id="YGGrTB0Uita2elQhQ-9G-81" value="" style="ellipse;whiteSpace=wrap;html=1;aspect=fixed;fillColor=#e1d5e7;strokeColor=#9673a6;container=0;" parent="YGGrTB0Uita2elQhQ-9G-112" vertex="1">
          <mxGeometry x="2.584725287454611" y="102.56245762711873" width="8.962513659675404" height="8.962513659675404" as="geometry" />
        </mxCell>
        <mxCell id="YGGrTB0Uita2elQhQ-9G-82" value="" style="endArrow=none;dashed=1;html=1;dashPattern=1 3;strokeWidth=2;rounded=0;" parent="YGGrTB0Uita2elQhQ-9G-112" edge="1">
          <mxGeometry width="50" height="50" relative="1" as="geometry">
            <mxPoint x="7" y="71" as="sourcePoint" />
            <mxPoint x="7.4113927738927545" y="41.357142857142854" as="targetPoint" />
          </mxGeometry>
        </mxCell>
        <mxCell id="YGGrTB0Uita2elQhQ-9G-114" value="" style="group" parent="YGGrTB0Uita2elQhQ-9G-115" vertex="1" connectable="0">
          <mxGeometry x="219.83999999999997" width="12.16" height="410" as="geometry" />
        </mxCell>
        <mxCell id="YGGrTB0Uita2elQhQ-9G-47" value="" style="rounded=0;whiteSpace=wrap;html=1;container=0;" parent="YGGrTB0Uita2elQhQ-9G-114" vertex="1">
          <mxGeometry y="114.433908045977" width="12.160000000000005" height="133.0503671775224" as="geometry" />
        </mxCell>
        <mxCell id="YGGrTB0Uita2elQhQ-9G-48" value="" style="ellipse;whiteSpace=wrap;html=1;aspect=fixed;fillColor=#d5e8d4;strokeColor=#82b366;container=0;" parent="YGGrTB0Uita2elQhQ-9G-114" vertex="1">
          <mxGeometry x="2.7376751281338643" y="117.61446153352566" width="6.729463090106541" height="6.729463090106541" as="geometry" />
        </mxCell>
        <mxCell id="YGGrTB0Uita2elQhQ-9G-49" value="" style="ellipse;whiteSpace=wrap;html=1;aspect=fixed;fillColor=#d5e8d4;strokeColor=#82b366;container=0;" parent="YGGrTB0Uita2elQhQ-9G-114" vertex="1">
          <mxGeometry x="2.7376751281338643" y="130.8060919424267" width="6.729463090106541" height="6.729463090106541" as="geometry" />
        </mxCell>
        <mxCell id="YGGrTB0Uita2elQhQ-9G-50" value="" style="ellipse;whiteSpace=wrap;html=1;aspect=fixed;fillColor=#d5e8d4;strokeColor=#82b366;container=0;" parent="YGGrTB0Uita2elQhQ-9G-114" vertex="1">
          <mxGeometry x="2.7376751281338643" y="143.52659269386695" width="6.729463090106541" height="6.729463090106541" as="geometry" />
        </mxCell>
        <mxCell id="YGGrTB0Uita2elQhQ-9G-51" value="" style="ellipse;whiteSpace=wrap;html=1;aspect=fixed;fillColor=#d5e8d4;strokeColor=#82b366;container=0;" parent="YGGrTB0Uita2elQhQ-9G-114" vertex="1">
          <mxGeometry x="2.7376751281338643" y="155.77596378784648" width="6.729463090106541" height="6.729463090106541" as="geometry" />
        </mxCell>
        <mxCell id="YGGrTB0Uita2elQhQ-9G-52" value="" style="ellipse;whiteSpace=wrap;html=1;aspect=fixed;fillColor=#d5e8d4;strokeColor=#82b366;container=0;" parent="YGGrTB0Uita2elQhQ-9G-114" vertex="1">
          <mxGeometry x="2.7376751281338643" y="195.65828108233688" width="6.729463090106541" height="6.729463090106541" as="geometry" />
        </mxCell>
        <mxCell id="YGGrTB0Uita2elQhQ-9G-53" value="" style="ellipse;whiteSpace=wrap;html=1;aspect=fixed;fillColor=#d5e8d4;strokeColor=#82b366;container=0;" parent="YGGrTB0Uita2elQhQ-9G-114" vertex="1">
          <mxGeometry x="2.7376751281338643" y="208.84991149123783" width="6.729463090106541" height="6.729463090106541" as="geometry" />
        </mxCell>
        <mxCell id="YGGrTB0Uita2elQhQ-9G-54" value="" style="ellipse;whiteSpace=wrap;html=1;aspect=fixed;fillColor=#d5e8d4;strokeColor=#82b366;container=0;" parent="YGGrTB0Uita2elQhQ-9G-114" vertex="1">
          <mxGeometry x="2.7376751281338643" y="221.57041224267815" width="6.729463090106541" height="6.729463090106541" as="geometry" />
        </mxCell>
        <mxCell id="YGGrTB0Uita2elQhQ-9G-55" value="" style="ellipse;whiteSpace=wrap;html=1;aspect=fixed;fillColor=#d5e8d4;strokeColor=#82b366;container=0;" parent="YGGrTB0Uita2elQhQ-9G-114" vertex="1">
          <mxGeometry x="2.7376751281338643" y="233.81978333665774" width="6.729463090106541" height="6.729463090106541" as="geometry" />
        </mxCell>
        <mxCell id="YGGrTB0Uita2elQhQ-9G-104" value="" style="endArrow=none;dashed=1;html=1;dashPattern=1 3;strokeWidth=2;rounded=0;" parent="YGGrTB0Uita2elQhQ-9G-114" edge="1">
          <mxGeometry width="50" height="50" relative="1" as="geometry">
            <mxPoint x="6.462657342657358" y="190.80328065134103" as="sourcePoint" />
            <mxPoint x="6.462657342657358" y="167.73096264367823" as="targetPoint" />
          </mxGeometry>
        </mxCell>
        <mxCell id="YGGrTB0Uita2elQhQ-9G-58" value="" style="rounded=0;whiteSpace=wrap;html=1;container=0;" parent="YGGrTB0Uita2elQhQ-9G-114" vertex="1">
          <mxGeometry y="288.2568646232439" width="12.160000000000005" height="130.74313537675607" as="geometry" />
        </mxCell>
        <mxCell id="YGGrTB0Uita2elQhQ-9G-59" value="" style="ellipse;whiteSpace=wrap;html=1;aspect=fixed;fillColor=#d5e8d4;strokeColor=#82b366;container=0;" parent="YGGrTB0Uita2elQhQ-9G-114" vertex="1">
          <mxGeometry x="2.7376751281338643" y="291.08364256800854" width="6.729463090106541" height="6.729463090106541" as="geometry" />
        </mxCell>
        <mxCell id="YGGrTB0Uita2elQhQ-9G-60" value="" style="ellipse;whiteSpace=wrap;html=1;aspect=fixed;fillColor=#d5e8d4;strokeColor=#82b366;container=0;" parent="YGGrTB0Uita2elQhQ-9G-114" vertex="1">
          <mxGeometry x="2.7376751281338643" y="304.2752729769095" width="6.729463090106541" height="6.729463090106541" as="geometry" />
        </mxCell>
        <mxCell id="YGGrTB0Uita2elQhQ-9G-61" value="" style="ellipse;whiteSpace=wrap;html=1;aspect=fixed;fillColor=#d5e8d4;strokeColor=#82b366;container=0;" parent="YGGrTB0Uita2elQhQ-9G-114" vertex="1">
          <mxGeometry x="2.7376751281338643" y="316.99577372834983" width="6.729463090106541" height="6.729463090106541" as="geometry" />
        </mxCell>
        <mxCell id="YGGrTB0Uita2elQhQ-9G-62" value="" style="ellipse;whiteSpace=wrap;html=1;aspect=fixed;fillColor=#d5e8d4;strokeColor=#82b366;container=0;" parent="YGGrTB0Uita2elQhQ-9G-114" vertex="1">
          <mxGeometry x="2.7376751281338643" y="329.2451448223293" width="6.729463090106541" height="6.729463090106541" as="geometry" />
        </mxCell>
        <mxCell id="YGGrTB0Uita2elQhQ-9G-63" value="" style="ellipse;whiteSpace=wrap;html=1;aspect=fixed;fillColor=#d5e8d4;strokeColor=#82b366;container=0;" parent="YGGrTB0Uita2elQhQ-9G-114" vertex="1">
          <mxGeometry x="2.921917552376282" y="366.7048687260151" width="6.729463090106541" height="6.729463090106541" as="geometry" />
        </mxCell>
        <mxCell id="YGGrTB0Uita2elQhQ-9G-64" value="" style="ellipse;whiteSpace=wrap;html=1;aspect=fixed;fillColor=#d5e8d4;strokeColor=#82b366;container=0;" parent="YGGrTB0Uita2elQhQ-9G-114" vertex="1">
          <mxGeometry x="2.921917552376282" y="379.89649913491604" width="6.729463090106541" height="6.729463090106541" as="geometry" />
        </mxCell>
        <mxCell id="YGGrTB0Uita2elQhQ-9G-65" value="" style="ellipse;whiteSpace=wrap;html=1;aspect=fixed;fillColor=#d5e8d4;strokeColor=#82b366;container=0;" parent="YGGrTB0Uita2elQhQ-9G-114" vertex="1">
          <mxGeometry x="2.921917552376282" y="392.61699988635615" width="6.729463090106541" height="6.729463090106541" as="geometry" />
        </mxCell>
        <mxCell id="YGGrTB0Uita2elQhQ-9G-66" value="" style="ellipse;whiteSpace=wrap;html=1;aspect=fixed;fillColor=#d5e8d4;strokeColor=#82b366;container=0;" parent="YGGrTB0Uita2elQhQ-9G-114" vertex="1">
          <mxGeometry x="2.921917552376282" y="404.86637098033583" width="6.729463090106541" height="6.729463090106541" as="geometry" />
        </mxCell>
        <mxCell id="YGGrTB0Uita2elQhQ-9G-105" value="" style="endArrow=none;dashed=1;html=1;dashPattern=1 3;strokeWidth=2;rounded=0;" parent="YGGrTB0Uita2elQhQ-9G-114" edge="1">
          <mxGeometry width="50" height="50" relative="1" as="geometry">
            <mxPoint x="6.646899766899816" y="360.71163393997443" as="sourcePoint" />
            <mxPoint x="6.646899766899816" y="337.6393159323116" as="targetPoint" />
          </mxGeometry>
        </mxCell>
        <mxCell id="YGGrTB0Uita2elQhQ-9G-30" value="" style="rounded=0;whiteSpace=wrap;html=1;container=0;" parent="YGGrTB0Uita2elQhQ-9G-114" vertex="1">
          <mxGeometry y="-24" width="12.160000000000005" height="130.4431952426565" as="geometry" />
        </mxCell>
        <mxCell id="YGGrTB0Uita2elQhQ-9G-31" value="" style="ellipse;whiteSpace=wrap;html=1;aspect=fixed;fillColor=#d5e8d4;strokeColor=#82b366;container=0;" parent="YGGrTB0Uita2elQhQ-9G-114" vertex="1">
          <mxGeometry x="2.7376751281338643" y="-21.173222055235502" width="6.729463090106541" height="6.729463090106541" as="geometry" />
        </mxCell>
        <mxCell id="YGGrTB0Uita2elQhQ-9G-32" value="" style="ellipse;whiteSpace=wrap;html=1;aspect=fixed;fillColor=#d5e8d4;strokeColor=#82b366;container=0;" parent="YGGrTB0Uita2elQhQ-9G-114" vertex="1">
          <mxGeometry x="2.7376751281338643" y="-7.981591646334454" width="6.729463090106541" height="6.729463090106541" as="geometry" />
        </mxCell>
        <mxCell id="YGGrTB0Uita2elQhQ-9G-33" value="" style="ellipse;whiteSpace=wrap;html=1;aspect=fixed;fillColor=#d5e8d4;strokeColor=#82b366;container=0;" parent="YGGrTB0Uita2elQhQ-9G-114" vertex="1">
          <mxGeometry x="2.7376751281338643" y="4.738909105105801" width="6.729463090106541" height="6.729463090106541" as="geometry" />
        </mxCell>
        <mxCell id="YGGrTB0Uita2elQhQ-9G-34" value="" style="ellipse;whiteSpace=wrap;html=1;aspect=fixed;fillColor=#d5e8d4;strokeColor=#82b366;container=0;" parent="YGGrTB0Uita2elQhQ-9G-114" vertex="1">
          <mxGeometry x="2.7376751281338643" y="16.988280199085267" width="6.729463090106541" height="6.729463090106541" as="geometry" />
        </mxCell>
        <mxCell id="YGGrTB0Uita2elQhQ-9G-35" value="" style="ellipse;whiteSpace=wrap;html=1;aspect=fixed;fillColor=#d5e8d4;strokeColor=#82b366;container=0;" parent="YGGrTB0Uita2elQhQ-9G-114" vertex="1">
          <mxGeometry x="2.7376751281338643" y="54.61720110149396" width="6.729463090106541" height="6.729463090106541" as="geometry" />
        </mxCell>
        <mxCell id="YGGrTB0Uita2elQhQ-9G-36" value="" style="ellipse;whiteSpace=wrap;html=1;aspect=fixed;fillColor=#d5e8d4;strokeColor=#82b366;container=0;" parent="YGGrTB0Uita2elQhQ-9G-114" vertex="1">
          <mxGeometry x="2.7376751281338643" y="67.80883151039497" width="6.729463090106541" height="6.729463090106541" as="geometry" />
        </mxCell>
        <mxCell id="YGGrTB0Uita2elQhQ-9G-37" value="" style="ellipse;whiteSpace=wrap;html=1;aspect=fixed;fillColor=#d5e8d4;strokeColor=#82b366;container=0;" parent="YGGrTB0Uita2elQhQ-9G-114" vertex="1">
          <mxGeometry x="2.7376751281338643" y="80.52933226183517" width="6.729463090106541" height="6.729463090106541" as="geometry" />
        </mxCell>
        <mxCell id="YGGrTB0Uita2elQhQ-9G-38" value="" style="ellipse;whiteSpace=wrap;html=1;aspect=fixed;fillColor=#d5e8d4;strokeColor=#82b366;container=0;" parent="YGGrTB0Uita2elQhQ-9G-114" vertex="1">
          <mxGeometry x="2.7376751281338643" y="92.77870335581474" width="6.729463090106541" height="6.729463090106541" as="geometry" />
        </mxCell>
        <mxCell id="YGGrTB0Uita2elQhQ-9G-102" value="" style="endArrow=none;dashed=1;html=1;dashPattern=1 3;strokeWidth=2;rounded=0;" parent="YGGrTB0Uita2elQhQ-9G-114" edge="1">
          <mxGeometry width="50" height="50" relative="1" as="geometry">
            <mxPoint x="6.646899766899816" y="49.99292385057474" as="sourcePoint" />
            <mxPoint x="6.646899766899816" y="26.92060584291187" as="targetPoint" />
          </mxGeometry>
        </mxCell>
        <mxCell id="YGGrTB0Uita2elQhQ-9G-144" value="" style="endArrow=none;dashed=1;html=1;dashPattern=1 3;strokeWidth=2;rounded=0;" parent="YGGrTB0Uita2elQhQ-9G-114" edge="1">
          <mxGeometry width="50" height="50" relative="1" as="geometry">
            <mxPoint x="6.630000000000052" y="280.5" as="sourcePoint" />
            <mxPoint x="6.630000000000052" y="260.5" as="targetPoint" />
          </mxGeometry>
        </mxCell>
        <mxCell id="YGGrTB0Uita2elQhQ-9G-75" value="" style="endArrow=none;html=1;rounded=0;exitX=1;exitY=0;exitDx=0;exitDy=0;entryX=0;entryY=0;entryDx=0;entryDy=0;" parent="YGGrTB0Uita2elQhQ-9G-115" source="YGGrTB0Uita2elQhQ-9G-20" target="YGGrTB0Uita2elQhQ-9G-47" edge="1">
          <mxGeometry width="50" height="50" relative="1" as="geometry">
            <mxPoint x="212" y="280" as="sourcePoint" />
            <mxPoint x="262" y="230" as="targetPoint" />
          </mxGeometry>
        </mxCell>
        <mxCell id="YGGrTB0Uita2elQhQ-9G-76" value="" style="endArrow=none;html=1;rounded=0;exitX=1;exitY=1;exitDx=0;exitDy=0;entryX=0;entryY=1;entryDx=0;entryDy=0;" parent="YGGrTB0Uita2elQhQ-9G-115" source="YGGrTB0Uita2elQhQ-9G-20" target="YGGrTB0Uita2elQhQ-9G-47" edge="1">
          <mxGeometry width="50" height="50" relative="1" as="geometry">
            <mxPoint x="212" y="280" as="sourcePoint" />
            <mxPoint x="262" y="230" as="targetPoint" />
          </mxGeometry>
        </mxCell>
        <mxCell id="YGGrTB0Uita2elQhQ-9G-77" value="" style="endArrow=none;html=1;rounded=0;exitX=1;exitY=0;exitDx=0;exitDy=0;entryX=0;entryY=0;entryDx=0;entryDy=0;" parent="YGGrTB0Uita2elQhQ-9G-115" source="YGGrTB0Uita2elQhQ-9G-20" target="YGGrTB0Uita2elQhQ-9G-58" edge="1">
          <mxGeometry width="50" height="50" relative="1" as="geometry">
            <mxPoint x="212" y="280" as="sourcePoint" />
            <mxPoint x="262" y="230" as="targetPoint" />
          </mxGeometry>
        </mxCell>
        <mxCell id="YGGrTB0Uita2elQhQ-9G-78" value="" style="endArrow=none;html=1;rounded=0;entryX=0;entryY=1;entryDx=0;entryDy=0;exitX=1;exitY=1;exitDx=0;exitDy=0;" parent="YGGrTB0Uita2elQhQ-9G-115" source="YGGrTB0Uita2elQhQ-9G-20" target="YGGrTB0Uita2elQhQ-9G-58" edge="1">
          <mxGeometry width="50" height="50" relative="1" as="geometry">
            <mxPoint x="112" y="270" as="sourcePoint" />
            <mxPoint x="262" y="230" as="targetPoint" />
          </mxGeometry>
        </mxCell>
        <mxCell id="YGGrTB0Uita2elQhQ-9G-73" value="" style="endArrow=none;html=1;rounded=0;exitX=1;exitY=0;exitDx=0;exitDy=0;entryX=0;entryY=0;entryDx=0;entryDy=0;" parent="YGGrTB0Uita2elQhQ-9G-115" source="YGGrTB0Uita2elQhQ-9G-20" target="YGGrTB0Uita2elQhQ-9G-30" edge="1">
          <mxGeometry width="50" height="50" relative="1" as="geometry">
            <mxPoint x="212" y="280" as="sourcePoint" />
            <mxPoint x="262" y="230" as="targetPoint" />
          </mxGeometry>
        </mxCell>
        <mxCell id="YGGrTB0Uita2elQhQ-9G-74" value="" style="endArrow=none;html=1;rounded=0;exitX=1;exitY=1;exitDx=0;exitDy=0;entryX=0;entryY=1;entryDx=0;entryDy=0;" parent="YGGrTB0Uita2elQhQ-9G-115" source="YGGrTB0Uita2elQhQ-9G-20" target="YGGrTB0Uita2elQhQ-9G-30" edge="1">
          <mxGeometry width="50" height="50" relative="1" as="geometry">
            <mxPoint x="212" y="280" as="sourcePoint" />
            <mxPoint x="262" y="230" as="targetPoint" />
          </mxGeometry>
        </mxCell>
        <mxCell id="YGGrTB0Uita2elQhQ-9G-117" value="$$W_{V*N}$$" style="text;html=1;strokeColor=none;fillColor=none;align=center;verticalAlign=middle;whiteSpace=wrap;rounded=0;" parent="YGGrTB0Uita2elQhQ-9G-115" vertex="1">
          <mxGeometry x="22" y="195.5" width="60" height="30" as="geometry" />
        </mxCell>
        <mxCell id="YGGrTB0Uita2elQhQ-9G-118" value="$$W&#39;_{N*V}$$" style="text;html=1;strokeColor=none;fillColor=none;align=center;verticalAlign=middle;whiteSpace=wrap;rounded=0;" parent="YGGrTB0Uita2elQhQ-9G-115" vertex="1">
          <mxGeometry x="152" y="66.99999999999999" width="60" height="30" as="geometry" />
        </mxCell>
        <mxCell id="YGGrTB0Uita2elQhQ-9G-119" value="$$W&#39;_{N*V}$$" style="text;html=1;strokeColor=none;fillColor=none;align=center;verticalAlign=middle;whiteSpace=wrap;rounded=0;" parent="YGGrTB0Uita2elQhQ-9G-115" vertex="1">
          <mxGeometry x="152" y="190" width="60" height="30" as="geometry" />
        </mxCell>
        <mxCell id="YGGrTB0Uita2elQhQ-9G-120" value="$$W&#39;_{N*V}$$" style="text;html=1;strokeColor=none;fillColor=none;align=center;verticalAlign=middle;whiteSpace=wrap;rounded=0;" parent="YGGrTB0Uita2elQhQ-9G-115" vertex="1">
          <mxGeometry x="152" y="285.64" width="60" height="30" as="geometry" />
        </mxCell>
        <mxCell id="YGGrTB0Uita2elQhQ-9G-122" value="$$N_&lt;br&gt;{dim}$$" style="text;html=1;strokeColor=none;fillColor=none;align=center;verticalAlign=middle;whiteSpace=wrap;rounded=0;" parent="YGGrTB0Uita2elQhQ-9G-115" vertex="1">
          <mxGeometry x="71.11000000000001" y="270" width="60" height="30" as="geometry" />
        </mxCell>
        <mxCell id="YGGrTB0Uita2elQhQ-9G-123" value="Hinden layer" style="text;html=1;strokeColor=none;fillColor=none;align=center;verticalAlign=middle;whiteSpace=wrap;rounded=0;labelBackgroundColor=#FFD966;" parent="YGGrTB0Uita2elQhQ-9G-115" vertex="1">
          <mxGeometry x="60.55" y="90" width="81.11" height="30" as="geometry" />
        </mxCell>
        <mxCell id="YGGrTB0Uita2elQhQ-9G-124" value="Input layer" style="text;html=1;strokeColor=none;fillColor=none;align=center;verticalAlign=middle;whiteSpace=wrap;rounded=0;labelBackgroundColor=#FFD966;" parent="YGGrTB0Uita2elQhQ-9G-115" vertex="1">
          <mxGeometry x="-31.970000000000002" y="90" width="81.11" height="30" as="geometry" />
        </mxCell>
        <mxCell id="YGGrTB0Uita2elQhQ-9G-133" value="$$V_&lt;br&gt;{dim}$$" style="text;html=1;strokeColor=none;fillColor=none;align=center;verticalAlign=middle;whiteSpace=wrap;rounded=0;" parent="YGGrTB0Uita2elQhQ-9G-115" vertex="1">
          <mxGeometry x="-18" y="300" width="60" height="30" as="geometry" />
        </mxCell>
        <mxCell id="YGGrTB0Uita2elQhQ-9G-125" value="Output layer" style="text;html=1;strokeColor=none;fillColor=none;align=center;verticalAlign=middle;whiteSpace=wrap;rounded=0;labelBackgroundColor=#FFD966;" parent="1" vertex="1">
          <mxGeometry x="379" y="266" width="81.11" height="30" as="geometry" />
        </mxCell>
        <mxCell id="YGGrTB0Uita2elQhQ-9G-126" value="&lt;div&gt;[0,&lt;/div&gt;&lt;div&gt;1,&lt;/div&gt;&lt;div&gt;0,&lt;/div&gt;&lt;div&gt;0,&lt;/div&gt;&lt;div&gt;0,&lt;/div&gt;&lt;div&gt;…,&lt;/div&gt;&lt;div&gt;0,&lt;/div&gt;&lt;div&gt;0,&lt;/div&gt;&lt;div&gt;0]&lt;/div&gt;" style="text;html=1;strokeColor=none;fillColor=none;align=center;verticalAlign=middle;whiteSpace=wrap;rounded=0;" parent="1" vertex="1">
          <mxGeometry x="116" y="535" width="110" height="10" as="geometry" />
        </mxCell>
        <mxCell id="YGGrTB0Uita2elQhQ-9G-127" value="&lt;div&gt;[0,&lt;/div&gt;&lt;div&gt;0,&lt;/div&gt;&lt;div&gt;0,&lt;/div&gt;&lt;div&gt;0,&lt;/div&gt;&lt;div&gt;1,&lt;/div&gt;&lt;div&gt;…,&lt;/div&gt;&lt;div&gt;0,&lt;/div&gt;&lt;div&gt;0,&lt;/div&gt;&lt;div&gt;0]&lt;/div&gt;" style="text;html=1;strokeColor=none;fillColor=none;align=center;verticalAlign=middle;whiteSpace=wrap;rounded=0;horizontal=1;" parent="1" vertex="1">
          <mxGeometry x="523" y="357" width="110" height="10" as="geometry" />
        </mxCell>
        <mxCell id="YGGrTB0Uita2elQhQ-9G-128" value="&lt;div&gt;[1,&lt;/div&gt;&lt;div&gt;0,&lt;/div&gt;&lt;div&gt;0,&lt;/div&gt;&lt;div&gt;0,&lt;/div&gt;&lt;div&gt;0,&lt;/div&gt;&lt;div&gt;…,&lt;/div&gt;&lt;div&gt;0,&lt;/div&gt;&lt;div&gt;0,&lt;/div&gt;&lt;div&gt;0]&lt;/div&gt;" style="text;html=1;strokeColor=none;fillColor=none;align=center;verticalAlign=middle;whiteSpace=wrap;rounded=0;" parent="1" vertex="1">
          <mxGeometry x="523" y="497" width="110" height="10" as="geometry" />
        </mxCell>
        <mxCell id="YGGrTB0Uita2elQhQ-9G-129" value="&lt;div&gt;[0,&lt;/div&gt;&lt;div&gt;0,&lt;/div&gt;&lt;div&gt;0,&lt;/div&gt;&lt;div&gt;0,&lt;/div&gt;&lt;div&gt;0,&lt;/div&gt;&lt;div&gt;…,&lt;/div&gt;&lt;div&gt;0,&lt;/div&gt;&lt;div&gt;1,&lt;/div&gt;&lt;div&gt;0]&lt;/div&gt;" style="text;html=1;strokeColor=none;fillColor=none;align=center;verticalAlign=middle;whiteSpace=wrap;rounded=0;" parent="1" vertex="1">
          <mxGeometry x="523" y="670" width="110" height="10" as="geometry" />
        </mxCell>
        <mxCell id="YGGrTB0Uita2elQhQ-9G-130" value="[0.274, 0.137, 0.046, 0.053, 0.426,&lt;br&gt;…，0.071, 0.140,&lt;br&gt;0.039]" style="text;html=1;strokeColor=none;fillColor=none;align=center;verticalAlign=middle;whiteSpace=wrap;rounded=0;" parent="1" vertex="1">
          <mxGeometry x="480.11" y="356" width="54.89" height="10" as="geometry" />
        </mxCell>
        <mxCell id="YGGrTB0Uita2elQhQ-9G-134" value="$$C&lt;br&gt;*V_&lt;br&gt;{dim}$$" style="text;html=1;strokeColor=none;fillColor=none;align=center;verticalAlign=middle;whiteSpace=wrap;rounded=0;" parent="1" vertex="1">
          <mxGeometry x="405.11" y="739" width="60" height="30" as="geometry" />
        </mxCell>
        <mxCell id="YGGrTB0Uita2elQhQ-9G-135" value="[0.541, 0.095, 0.128, 0.177, 0.014,&lt;br&gt;…，&lt;br&gt;0.16, 0.085, 0.1]" style="text;html=1;strokeColor=none;fillColor=none;align=center;verticalAlign=middle;whiteSpace=wrap;rounded=0;" parent="1" vertex="1">
          <mxGeometry x="480.11" y="497" width="54.89" height="10" as="geometry" />
        </mxCell>
        <mxCell id="YGGrTB0Uita2elQhQ-9G-136" value="[0.063, 0.134, 0.011, 0.023, 0.052,&lt;br&gt;…，&lt;br&gt;0.098, 0.326, 0.179]]" style="text;html=1;strokeColor=none;fillColor=none;align=center;verticalAlign=middle;whiteSpace=wrap;rounded=0;" parent="1" vertex="1">
          <mxGeometry x="480.11" y="669" width="54.89" height="10" as="geometry" />
        </mxCell>
        <mxCell id="YGGrTB0Uita2elQhQ-9G-137" value="$$y_{pred}$$" style="text;html=1;strokeColor=none;fillColor=none;align=center;verticalAlign=middle;whiteSpace=wrap;rounded=0;" parent="1" vertex="1">
          <mxGeometry x="476" y="264" width="60" height="30" as="geometry" />
        </mxCell>
        <mxCell id="YGGrTB0Uita2elQhQ-9G-138" value="$$y_{label}$$" style="text;html=1;strokeColor=none;fillColor=none;align=center;verticalAlign=middle;whiteSpace=wrap;rounded=0;" parent="1" vertex="1">
          <mxGeometry x="548" y="264" width="60" height="30" as="geometry" />
        </mxCell>
        <mxCell id="YGGrTB0Uita2elQhQ-9G-139" value="$$k_i$$" style="text;html=1;strokeColor=none;fillColor=none;align=center;verticalAlign=middle;whiteSpace=wrap;rounded=0;" parent="1" vertex="1">
          <mxGeometry x="166" y="515" width="60" height="30" as="geometry" />
        </mxCell>
        <mxCell id="YGGrTB0Uita2elQhQ-9G-140" value="$$k_{i-n}$$" style="text;html=1;strokeColor=none;fillColor=none;align=center;verticalAlign=middle;whiteSpace=wrap;rounded=0;" parent="1" vertex="1">
          <mxGeometry x="430" y="337" width="60" height="30" as="geometry" />
        </mxCell>
        <mxCell id="YGGrTB0Uita2elQhQ-9G-141" value="$$k_{i-n+1}$$" style="text;html=1;strokeColor=none;fillColor=none;align=center;verticalAlign=middle;whiteSpace=wrap;rounded=0;" parent="1" vertex="1">
          <mxGeometry x="436" y="477" width="60" height="30" as="geometry" />
        </mxCell>
        <mxCell id="YGGrTB0Uita2elQhQ-9G-143" value="$$k_{i+n}$$" style="text;html=1;strokeColor=none;fillColor=none;align=center;verticalAlign=middle;whiteSpace=wrap;rounded=0;" parent="1" vertex="1">
          <mxGeometry x="430" y="659" width="60" height="30" as="geometry" />
        </mxCell>
        <mxCell id="YGGrTB0Uita2elQhQ-9G-145" value="" style="endArrow=none;dashed=1;html=1;dashPattern=1 3;strokeWidth=2;rounded=0;" parent="1" edge="1">
          <mxGeometry width="50" height="50" relative="1" as="geometry">
            <mxPoint x="502.00000000000006" y="600" as="sourcePoint" />
            <mxPoint x="502.00000000000006" y="580" as="targetPoint" />
          </mxGeometry>
        </mxCell>
        <mxCell id="YGGrTB0Uita2elQhQ-9G-146" value="" style="endArrow=none;dashed=1;html=1;dashPattern=1 3;strokeWidth=2;rounded=0;" parent="1" edge="1">
          <mxGeometry width="50" height="50" relative="1" as="geometry">
            <mxPoint x="576.0000000000001" y="601" as="sourcePoint" />
            <mxPoint x="576.0000000000001" y="581" as="targetPoint" />
          </mxGeometry>
        </mxCell>
        <mxCell id="YGGrTB0Uita2elQhQ-9G-149" value="$$x$$" style="text;html=1;strokeColor=none;fillColor=none;align=center;verticalAlign=middle;whiteSpace=wrap;rounded=0;" parent="1" vertex="1">
          <mxGeometry x="140" y="439" width="60" height="30" as="geometry" />
        </mxCell>
        <mxCell id="YGGrTB0Uita2elQhQ-9G-413" style="edgeStyle=orthogonalEdgeStyle;rounded=0;orthogonalLoop=1;jettySize=auto;html=1;exitX=0.5;exitY=1;exitDx=0;exitDy=0;exitPerimeter=0;entryX=0;entryY=0.5;entryDx=0;entryDy=0;fontColor=#000000;" parent="1" source="YGGrTB0Uita2elQhQ-9G-193" target="YGGrTB0Uita2elQhQ-9G-212" edge="1">
          <mxGeometry relative="1" as="geometry" />
        </mxCell>
        <mxCell id="riNvDq7YMknwv2YMEXF6-1" style="edgeStyle=orthogonalEdgeStyle;rounded=0;orthogonalLoop=1;jettySize=auto;html=1;exitX=0.5;exitY=0;exitDx=0;exitDy=0;exitPerimeter=0;entryX=0;entryY=0.5;entryDx=0;entryDy=0;" edge="1" parent="1" source="YGGrTB0Uita2elQhQ-9G-193" target="YGGrTB0Uita2elQhQ-9G-237">
          <mxGeometry relative="1" as="geometry" />
        </mxCell>
        <mxCell id="YGGrTB0Uita2elQhQ-9G-193" value="DB" style="shape=cylinder3;whiteSpace=wrap;html=1;boundedLbl=1;backgroundOutline=1;size=15;labelBackgroundColor=none;fontColor=#000000;" parent="1" vertex="1">
          <mxGeometry x="184.5" y="971" width="60" height="60" as="geometry" />
        </mxCell>
        <mxCell id="YGGrTB0Uita2elQhQ-9G-211" value="用户点击行为资讯序列表（T）" style="shape=table;startSize=30;container=1;collapsible=0;childLayout=tableLayout;fontStyle=1;align=center;labelBackgroundColor=none;fontColor=#000000;" parent="1" vertex="1">
          <mxGeometry x="280" y="1020" width="170" height="90" as="geometry" />
        </mxCell>
        <mxCell id="YGGrTB0Uita2elQhQ-9G-212" value="" style="shape=tableRow;horizontal=0;startSize=0;swimlaneHead=0;swimlaneBody=0;top=0;left=0;bottom=0;right=0;collapsible=0;dropTarget=0;fillColor=none;points=[[0,0.5],[1,0.5]];portConstraint=eastwest;labelBackgroundColor=none;fontColor=#000000;" parent="YGGrTB0Uita2elQhQ-9G-211" vertex="1">
          <mxGeometry y="30" width="170" height="19" as="geometry" />
        </mxCell>
        <mxCell id="YGGrTB0Uita2elQhQ-9G-213" value="&lt;span style=&quot;font-weight: bold;&quot;&gt;user_id&lt;/span&gt;" style="shape=partialRectangle;html=1;whiteSpace=wrap;connectable=0;fillColor=none;top=0;left=0;bottom=0;right=0;overflow=hidden;labelBackgroundColor=none;fontColor=#000000;" parent="YGGrTB0Uita2elQhQ-9G-212" vertex="1">
          <mxGeometry width="73" height="19" as="geometry">
            <mxRectangle width="73" height="19" as="alternateBounds" />
          </mxGeometry>
        </mxCell>
        <mxCell id="YGGrTB0Uita2elQhQ-9G-214" value="&lt;b&gt;article_id_list&lt;/b&gt;" style="shape=partialRectangle;html=1;whiteSpace=wrap;connectable=0;fillColor=none;top=0;left=0;bottom=0;right=0;overflow=hidden;labelBackgroundColor=none;fontColor=#000000;" parent="YGGrTB0Uita2elQhQ-9G-212" vertex="1">
          <mxGeometry x="73" width="97" height="19" as="geometry">
            <mxRectangle width="97" height="19" as="alternateBounds" />
          </mxGeometry>
        </mxCell>
        <mxCell id="YGGrTB0Uita2elQhQ-9G-215" value="" style="shape=tableRow;horizontal=0;startSize=0;swimlaneHead=0;swimlaneBody=0;top=0;left=0;bottom=0;right=0;collapsible=0;dropTarget=0;fillColor=none;points=[[0,0.5],[1,0.5]];portConstraint=eastwest;labelBackgroundColor=none;fontColor=#000000;" parent="YGGrTB0Uita2elQhQ-9G-211" vertex="1">
          <mxGeometry y="49" width="170" height="21" as="geometry" />
        </mxCell>
        <mxCell id="YGGrTB0Uita2elQhQ-9G-216" value="" style="shape=partialRectangle;html=1;whiteSpace=wrap;connectable=0;fillColor=none;top=0;left=0;bottom=0;right=0;overflow=hidden;labelBackgroundColor=none;fontColor=#000000;" parent="YGGrTB0Uita2elQhQ-9G-215" vertex="1">
          <mxGeometry width="73" height="21" as="geometry">
            <mxRectangle width="73" height="21" as="alternateBounds" />
          </mxGeometry>
        </mxCell>
        <mxCell id="YGGrTB0Uita2elQhQ-9G-217" value="" style="shape=partialRectangle;html=1;whiteSpace=wrap;connectable=0;fillColor=none;top=0;left=0;bottom=0;right=0;overflow=hidden;labelBackgroundColor=none;fontColor=#000000;" parent="YGGrTB0Uita2elQhQ-9G-215" vertex="1">
          <mxGeometry x="73" width="97" height="21" as="geometry">
            <mxRectangle width="97" height="21" as="alternateBounds" />
          </mxGeometry>
        </mxCell>
        <mxCell id="YGGrTB0Uita2elQhQ-9G-218" value="" style="shape=tableRow;horizontal=0;startSize=0;swimlaneHead=0;swimlaneBody=0;top=0;left=0;bottom=0;right=0;collapsible=0;dropTarget=0;fillColor=none;points=[[0,0.5],[1,0.5]];portConstraint=eastwest;labelBackgroundColor=none;fontColor=#000000;" parent="YGGrTB0Uita2elQhQ-9G-211" vertex="1">
          <mxGeometry y="70" width="170" height="20" as="geometry" />
        </mxCell>
        <mxCell id="YGGrTB0Uita2elQhQ-9G-219" value="" style="shape=partialRectangle;html=1;whiteSpace=wrap;connectable=0;fillColor=none;top=0;left=0;bottom=0;right=0;overflow=hidden;labelBackgroundColor=none;fontColor=#000000;" parent="YGGrTB0Uita2elQhQ-9G-218" vertex="1">
          <mxGeometry width="73" height="20" as="geometry">
            <mxRectangle width="73" height="20" as="alternateBounds" />
          </mxGeometry>
        </mxCell>
        <mxCell id="YGGrTB0Uita2elQhQ-9G-220" value="" style="shape=partialRectangle;html=1;whiteSpace=wrap;connectable=0;fillColor=none;top=0;left=0;bottom=0;right=0;overflow=hidden;labelBackgroundColor=none;fontColor=#000000;" parent="YGGrTB0Uita2elQhQ-9G-218" vertex="1">
          <mxGeometry x="73" width="97" height="20" as="geometry">
            <mxRectangle width="97" height="20" as="alternateBounds" />
          </mxGeometry>
        </mxCell>
        <mxCell id="YGGrTB0Uita2elQhQ-9G-236" value="资讯关键词表（T）" style="shape=table;startSize=30;container=1;collapsible=0;childLayout=tableLayout;fontStyle=1;align=center;labelBackgroundColor=none;fontColor=#000000;" parent="1" vertex="1">
          <mxGeometry x="278.11" y="884" width="186.9999999999999" height="90" as="geometry" />
        </mxCell>
        <mxCell id="YGGrTB0Uita2elQhQ-9G-237" value="" style="shape=tableRow;horizontal=0;startSize=0;swimlaneHead=0;swimlaneBody=0;top=0;left=0;bottom=0;right=0;collapsible=0;dropTarget=0;fillColor=none;points=[[0,0.5],[1,0.5]];portConstraint=eastwest;labelBackgroundColor=none;fontColor=#000000;" parent="YGGrTB0Uita2elQhQ-9G-236" vertex="1">
          <mxGeometry y="30" width="186.9999999999999" height="19" as="geometry" />
        </mxCell>
        <mxCell id="YGGrTB0Uita2elQhQ-9G-238" value="&lt;span style=&quot;font-weight: bold;&quot;&gt;article_id&lt;/span&gt;" style="shape=partialRectangle;html=1;whiteSpace=wrap;connectable=0;fillColor=none;top=0;left=0;bottom=0;right=0;overflow=hidden;labelBackgroundColor=none;fontColor=#000000;" parent="YGGrTB0Uita2elQhQ-9G-237" vertex="1">
          <mxGeometry width="61" height="19" as="geometry">
            <mxRectangle width="61" height="19" as="alternateBounds" />
          </mxGeometry>
        </mxCell>
        <mxCell id="YGGrTB0Uita2elQhQ-9G-239" value="&lt;span style=&quot;font-weight: bold;&quot;&gt;article_&lt;/span&gt;&lt;span style=&quot;font-weight: bold;&quot;&gt;keywords_set&lt;/span&gt;" style="shape=partialRectangle;html=1;whiteSpace=wrap;connectable=0;fillColor=none;top=0;left=0;bottom=0;right=0;overflow=hidden;labelBackgroundColor=none;fontColor=#000000;" parent="YGGrTB0Uita2elQhQ-9G-237" vertex="1">
          <mxGeometry x="61" width="126" height="19" as="geometry">
            <mxRectangle width="126" height="19" as="alternateBounds" />
          </mxGeometry>
        </mxCell>
        <mxCell id="YGGrTB0Uita2elQhQ-9G-240" value="" style="shape=tableRow;horizontal=0;startSize=0;swimlaneHead=0;swimlaneBody=0;top=0;left=0;bottom=0;right=0;collapsible=0;dropTarget=0;fillColor=none;points=[[0,0.5],[1,0.5]];portConstraint=eastwest;labelBackgroundColor=none;fontColor=#000000;" parent="YGGrTB0Uita2elQhQ-9G-236" vertex="1">
          <mxGeometry y="49" width="186.9999999999999" height="21" as="geometry" />
        </mxCell>
        <mxCell id="YGGrTB0Uita2elQhQ-9G-241" value="" style="shape=partialRectangle;html=1;whiteSpace=wrap;connectable=0;fillColor=none;top=0;left=0;bottom=0;right=0;overflow=hidden;labelBackgroundColor=none;fontColor=#000000;" parent="YGGrTB0Uita2elQhQ-9G-240" vertex="1">
          <mxGeometry width="61" height="21" as="geometry">
            <mxRectangle width="61" height="21" as="alternateBounds" />
          </mxGeometry>
        </mxCell>
        <mxCell id="YGGrTB0Uita2elQhQ-9G-242" value="" style="shape=partialRectangle;html=1;whiteSpace=wrap;connectable=0;fillColor=none;top=0;left=0;bottom=0;right=0;overflow=hidden;labelBackgroundColor=none;fontColor=#000000;" parent="YGGrTB0Uita2elQhQ-9G-240" vertex="1">
          <mxGeometry x="61" width="126" height="21" as="geometry">
            <mxRectangle width="126" height="21" as="alternateBounds" />
          </mxGeometry>
        </mxCell>
        <mxCell id="YGGrTB0Uita2elQhQ-9G-243" value="" style="shape=tableRow;horizontal=0;startSize=0;swimlaneHead=0;swimlaneBody=0;top=0;left=0;bottom=0;right=0;collapsible=0;dropTarget=0;fillColor=none;points=[[0,0.5],[1,0.5]];portConstraint=eastwest;labelBackgroundColor=none;fontColor=#000000;" parent="YGGrTB0Uita2elQhQ-9G-236" vertex="1">
          <mxGeometry y="70" width="186.9999999999999" height="20" as="geometry" />
        </mxCell>
        <mxCell id="YGGrTB0Uita2elQhQ-9G-244" value="" style="shape=partialRectangle;html=1;whiteSpace=wrap;connectable=0;fillColor=none;top=0;left=0;bottom=0;right=0;overflow=hidden;labelBackgroundColor=none;fontColor=#000000;" parent="YGGrTB0Uita2elQhQ-9G-243" vertex="1">
          <mxGeometry width="61" height="20" as="geometry">
            <mxRectangle width="61" height="20" as="alternateBounds" />
          </mxGeometry>
        </mxCell>
        <mxCell id="YGGrTB0Uita2elQhQ-9G-245" value="" style="shape=partialRectangle;html=1;whiteSpace=wrap;connectable=0;fillColor=none;top=0;left=0;bottom=0;right=0;overflow=hidden;labelBackgroundColor=none;fontColor=#000000;" parent="YGGrTB0Uita2elQhQ-9G-243" vertex="1">
          <mxGeometry x="61" width="126" height="20" as="geometry">
            <mxRectangle width="126" height="20" as="alternateBounds" />
          </mxGeometry>
        </mxCell>
        <mxCell id="YGGrTB0Uita2elQhQ-9G-246" value="用户行为关键词表（样本集）" style="shape=table;startSize=30;container=1;collapsible=0;childLayout=tableLayout;fontStyle=1;align=center;labelBackgroundColor=none;fontColor=#000000;" parent="1" vertex="1">
          <mxGeometry x="523" y="960" width="173.85294117647095" height="90" as="geometry" />
        </mxCell>
        <mxCell id="YGGrTB0Uita2elQhQ-9G-247" value="" style="shape=tableRow;horizontal=0;startSize=0;swimlaneHead=0;swimlaneBody=0;top=0;left=0;bottom=0;right=0;collapsible=0;dropTarget=0;fillColor=none;points=[[0,0.5],[1,0.5]];portConstraint=eastwest;labelBackgroundColor=none;fontColor=#000000;" parent="YGGrTB0Uita2elQhQ-9G-246" vertex="1">
          <mxGeometry y="30" width="173.85294117647095" height="19" as="geometry" />
        </mxCell>
        <mxCell id="YGGrTB0Uita2elQhQ-9G-248" value="&lt;span style=&quot;font-weight: bold;&quot;&gt;user_id&lt;/span&gt;" style="shape=partialRectangle;html=1;whiteSpace=wrap;connectable=0;fillColor=none;top=0;left=0;bottom=0;right=0;overflow=hidden;labelBackgroundColor=none;fontColor=#000000;" parent="YGGrTB0Uita2elQhQ-9G-247" vertex="1">
          <mxGeometry width="55" height="19" as="geometry">
            <mxRectangle width="55" height="19" as="alternateBounds" />
          </mxGeometry>
        </mxCell>
        <mxCell id="YGGrTB0Uita2elQhQ-9G-249" value="&lt;b&gt;user_keywords_set&lt;/b&gt;" style="shape=partialRectangle;html=1;whiteSpace=wrap;connectable=0;fillColor=none;top=0;left=0;bottom=0;right=0;overflow=hidden;labelBackgroundColor=none;fontColor=#000000;" parent="YGGrTB0Uita2elQhQ-9G-247" vertex="1">
          <mxGeometry x="55" width="119" height="19" as="geometry">
            <mxRectangle width="119" height="19" as="alternateBounds" />
          </mxGeometry>
        </mxCell>
        <mxCell id="YGGrTB0Uita2elQhQ-9G-250" value="" style="shape=tableRow;horizontal=0;startSize=0;swimlaneHead=0;swimlaneBody=0;top=0;left=0;bottom=0;right=0;collapsible=0;dropTarget=0;fillColor=none;points=[[0,0.5],[1,0.5]];portConstraint=eastwest;labelBackgroundColor=none;fontColor=#000000;" parent="YGGrTB0Uita2elQhQ-9G-246" vertex="1">
          <mxGeometry y="49" width="173.85294117647095" height="21" as="geometry" />
        </mxCell>
        <mxCell id="YGGrTB0Uita2elQhQ-9G-251" value="" style="shape=partialRectangle;html=1;whiteSpace=wrap;connectable=0;fillColor=none;top=0;left=0;bottom=0;right=0;overflow=hidden;labelBackgroundColor=none;fontColor=#000000;" parent="YGGrTB0Uita2elQhQ-9G-250" vertex="1">
          <mxGeometry width="55" height="21" as="geometry">
            <mxRectangle width="55" height="21" as="alternateBounds" />
          </mxGeometry>
        </mxCell>
        <mxCell id="YGGrTB0Uita2elQhQ-9G-252" value="" style="shape=partialRectangle;html=1;whiteSpace=wrap;connectable=0;fillColor=none;top=0;left=0;bottom=0;right=0;overflow=hidden;labelBackgroundColor=none;fontColor=#000000;" parent="YGGrTB0Uita2elQhQ-9G-250" vertex="1">
          <mxGeometry x="55" width="119" height="21" as="geometry">
            <mxRectangle width="119" height="21" as="alternateBounds" />
          </mxGeometry>
        </mxCell>
        <mxCell id="YGGrTB0Uita2elQhQ-9G-253" value="" style="shape=tableRow;horizontal=0;startSize=0;swimlaneHead=0;swimlaneBody=0;top=0;left=0;bottom=0;right=0;collapsible=0;dropTarget=0;fillColor=none;points=[[0,0.5],[1,0.5]];portConstraint=eastwest;labelBackgroundColor=none;fontColor=#000000;" parent="YGGrTB0Uita2elQhQ-9G-246" vertex="1">
          <mxGeometry y="70" width="173.85294117647095" height="20" as="geometry" />
        </mxCell>
        <mxCell id="YGGrTB0Uita2elQhQ-9G-254" value="" style="shape=partialRectangle;html=1;whiteSpace=wrap;connectable=0;fillColor=none;top=0;left=0;bottom=0;right=0;overflow=hidden;labelBackgroundColor=none;fontColor=#000000;" parent="YGGrTB0Uita2elQhQ-9G-253" vertex="1">
          <mxGeometry width="55" height="20" as="geometry">
            <mxRectangle width="55" height="20" as="alternateBounds" />
          </mxGeometry>
        </mxCell>
        <mxCell id="YGGrTB0Uita2elQhQ-9G-255" value="" style="shape=partialRectangle;html=1;whiteSpace=wrap;connectable=0;fillColor=none;top=0;left=0;bottom=0;right=0;overflow=hidden;labelBackgroundColor=none;fontColor=#000000;" parent="YGGrTB0Uita2elQhQ-9G-253" vertex="1">
          <mxGeometry x="55" width="119" height="20" as="geometry">
            <mxRectangle width="119" height="20" as="alternateBounds" />
          </mxGeometry>
        </mxCell>
        <mxCell id="riNvDq7YMknwv2YMEXF6-2" style="edgeStyle=orthogonalEdgeStyle;rounded=0;orthogonalLoop=1;jettySize=auto;html=1;exitX=1;exitY=0.5;exitDx=0;exitDy=0;entryX=0;entryY=0.5;entryDx=0;entryDy=0;" edge="1" parent="1" source="YGGrTB0Uita2elQhQ-9G-258" target="YGGrTB0Uita2elQhQ-9G-247">
          <mxGeometry relative="1" as="geometry" />
        </mxCell>
        <mxCell id="YGGrTB0Uita2elQhQ-9G-258" value="join" style="ellipse;whiteSpace=wrap;html=1;aspect=fixed;labelBackgroundColor=none;fontColor=#000000;" parent="1" vertex="1">
          <mxGeometry x="476" y="984" width="29.5" height="29.5" as="geometry" />
        </mxCell>
        <mxCell id="YGGrTB0Uita2elQhQ-9G-259" style="edgeStyle=orthogonalEdgeStyle;rounded=0;orthogonalLoop=1;jettySize=auto;html=1;exitX=1;exitY=0.5;exitDx=0;exitDy=0;entryX=0.5;entryY=0;entryDx=0;entryDy=0;fontColor=#000000;" parent="1" source="YGGrTB0Uita2elQhQ-9G-237" target="YGGrTB0Uita2elQhQ-9G-258" edge="1">
          <mxGeometry relative="1" as="geometry" />
        </mxCell>
        <mxCell id="YGGrTB0Uita2elQhQ-9G-260" style="edgeStyle=orthogonalEdgeStyle;rounded=0;orthogonalLoop=1;jettySize=auto;html=1;exitX=1;exitY=0.5;exitDx=0;exitDy=0;entryX=0.5;entryY=1;entryDx=0;entryDy=0;fontColor=#000000;" parent="1" source="YGGrTB0Uita2elQhQ-9G-215" target="YGGrTB0Uita2elQhQ-9G-258" edge="1">
          <mxGeometry relative="1" as="geometry" />
        </mxCell>
        <mxCell id="riNvDq7YMknwv2YMEXF6-38" style="edgeStyle=orthogonalEdgeStyle;rounded=0;orthogonalLoop=1;jettySize=auto;html=1;exitX=1;exitY=0.5;exitDx=0;exitDy=0;" edge="1" parent="1" source="YGGrTB0Uita2elQhQ-9G-338" target="riNvDq7YMknwv2YMEXF6-22">
          <mxGeometry relative="1" as="geometry" />
        </mxCell>
        <mxCell id="YGGrTB0Uita2elQhQ-9G-338" value="training server" style="icon;html=1;image=img/clipart/Gear_128x128.png;labelBackgroundColor=none;fontColor=#000000;" parent="1" vertex="1">
          <mxGeometry x="744" y="968.75" width="60" height="60" as="geometry" />
        </mxCell>
        <mxCell id="YGGrTB0Uita2elQhQ-9G-432" style="edgeStyle=orthogonalEdgeStyle;rounded=0;orthogonalLoop=1;jettySize=auto;html=1;exitX=1;exitY=0.25;exitDx=0;exitDy=0;entryX=0.01;entryY=-0.238;entryDx=0;entryDy=0;fontColor=#000000;entryPerimeter=0;" parent="1" source="YGGrTB0Uita2elQhQ-9G-360" target="YGGrTB0Uita2elQhQ-9G-397" edge="1">
          <mxGeometry relative="1" as="geometry" />
        </mxCell>
        <mxCell id="YGGrTB0Uita2elQhQ-9G-443" style="edgeStyle=orthogonalEdgeStyle;rounded=0;orthogonalLoop=1;jettySize=auto;html=1;exitX=1;exitY=0.75;exitDx=0;exitDy=0;entryX=0;entryY=0.5;entryDx=0;entryDy=0;fontColor=#000000;" parent="1" source="YGGrTB0Uita2elQhQ-9G-360" target="YGGrTB0Uita2elQhQ-9G-434" edge="1">
          <mxGeometry relative="1" as="geometry" />
        </mxCell>
        <mxCell id="YGGrTB0Uita2elQhQ-9G-360" value="inference server" style="icon;html=1;image=img/clipart/Gear_128x128.png;labelBackgroundColor=none;fontColor=#000000;" parent="1" vertex="1">
          <mxGeometry x="750" y="1184" width="60" height="60" as="geometry" />
        </mxCell>
        <mxCell id="hBkT6UcEdp7coPNB_tJo-41" style="edgeStyle=orthogonalEdgeStyle;rounded=0;orthogonalLoop=1;jettySize=auto;html=1;exitX=1;exitY=0.5;exitDx=0;exitDy=0;entryX=0;entryY=0.5;entryDx=0;entryDy=0;" parent="1" source="YGGrTB0Uita2elQhQ-9G-361" target="YGGrTB0Uita2elQhQ-9G-375" edge="1">
          <mxGeometry relative="1" as="geometry" />
        </mxCell>
        <mxCell id="YGGrTB0Uita2elQhQ-9G-361" value="资讯流" style="shape=tapeData;whiteSpace=wrap;html=1;perimeter=ellipsePerimeter;labelBackgroundColor=none;fontColor=#000000;" parent="1" vertex="1">
          <mxGeometry x="175.5" y="1132" width="69" height="69" as="geometry" />
        </mxCell>
        <mxCell id="YGGrTB0Uita2elQhQ-9G-374" value="资讯关键词表（t）" style="shape=table;startSize=30;container=1;collapsible=0;childLayout=tableLayout;fontStyle=1;align=center;labelBackgroundColor=none;fontColor=#000000;" parent="1" vertex="1">
          <mxGeometry x="280" y="1127" width="193.14285714285717" height="90" as="geometry" />
        </mxCell>
        <mxCell id="YGGrTB0Uita2elQhQ-9G-375" value="" style="shape=tableRow;horizontal=0;startSize=0;swimlaneHead=0;swimlaneBody=0;top=0;left=0;bottom=0;right=0;collapsible=0;dropTarget=0;fillColor=none;points=[[0,0.5],[1,0.5]];portConstraint=eastwest;labelBackgroundColor=none;fontColor=#000000;" parent="YGGrTB0Uita2elQhQ-9G-374" vertex="1">
          <mxGeometry y="30" width="193.14285714285717" height="19" as="geometry" />
        </mxCell>
        <mxCell id="YGGrTB0Uita2elQhQ-9G-376" value="&lt;span style=&quot;font-weight: bold;&quot;&gt;article_id&lt;/span&gt;" style="shape=partialRectangle;html=1;whiteSpace=wrap;connectable=0;fillColor=none;top=0;left=0;bottom=0;right=0;overflow=hidden;labelBackgroundColor=none;fontColor=#000000;" parent="YGGrTB0Uita2elQhQ-9G-375" vertex="1">
          <mxGeometry width="63" height="19" as="geometry">
            <mxRectangle width="63" height="19" as="alternateBounds" />
          </mxGeometry>
        </mxCell>
        <mxCell id="YGGrTB0Uita2elQhQ-9G-377" value="&lt;span style=&quot;font-weight: bold;&quot;&gt;article_&lt;/span&gt;&lt;span style=&quot;font-weight: bold;&quot;&gt;keywords_set&lt;/span&gt;" style="shape=partialRectangle;html=1;whiteSpace=wrap;connectable=0;fillColor=none;top=0;left=0;bottom=0;right=0;overflow=hidden;labelBackgroundColor=none;fontColor=#000000;" parent="YGGrTB0Uita2elQhQ-9G-375" vertex="1">
          <mxGeometry x="63" width="130" height="19" as="geometry">
            <mxRectangle width="130" height="19" as="alternateBounds" />
          </mxGeometry>
        </mxCell>
        <mxCell id="YGGrTB0Uita2elQhQ-9G-378" value="" style="shape=tableRow;horizontal=0;startSize=0;swimlaneHead=0;swimlaneBody=0;top=0;left=0;bottom=0;right=0;collapsible=0;dropTarget=0;fillColor=none;points=[[0,0.5],[1,0.5]];portConstraint=eastwest;labelBackgroundColor=none;fontColor=#000000;" parent="YGGrTB0Uita2elQhQ-9G-374" vertex="1">
          <mxGeometry y="49" width="193.14285714285717" height="21" as="geometry" />
        </mxCell>
        <mxCell id="YGGrTB0Uita2elQhQ-9G-379" value="" style="shape=partialRectangle;html=1;whiteSpace=wrap;connectable=0;fillColor=none;top=0;left=0;bottom=0;right=0;overflow=hidden;labelBackgroundColor=none;fontColor=#000000;" parent="YGGrTB0Uita2elQhQ-9G-378" vertex="1">
          <mxGeometry width="63" height="21" as="geometry">
            <mxRectangle width="63" height="21" as="alternateBounds" />
          </mxGeometry>
        </mxCell>
        <mxCell id="YGGrTB0Uita2elQhQ-9G-380" value="" style="shape=partialRectangle;html=1;whiteSpace=wrap;connectable=0;fillColor=none;top=0;left=0;bottom=0;right=0;overflow=hidden;labelBackgroundColor=none;fontColor=#000000;" parent="YGGrTB0Uita2elQhQ-9G-378" vertex="1">
          <mxGeometry x="63" width="130" height="21" as="geometry">
            <mxRectangle width="130" height="21" as="alternateBounds" />
          </mxGeometry>
        </mxCell>
        <mxCell id="YGGrTB0Uita2elQhQ-9G-381" value="" style="shape=tableRow;horizontal=0;startSize=0;swimlaneHead=0;swimlaneBody=0;top=0;left=0;bottom=0;right=0;collapsible=0;dropTarget=0;fillColor=none;points=[[0,0.5],[1,0.5]];portConstraint=eastwest;labelBackgroundColor=none;fontColor=#000000;" parent="YGGrTB0Uita2elQhQ-9G-374" vertex="1">
          <mxGeometry y="70" width="193.14285714285717" height="20" as="geometry" />
        </mxCell>
        <mxCell id="YGGrTB0Uita2elQhQ-9G-382" value="" style="shape=partialRectangle;html=1;whiteSpace=wrap;connectable=0;fillColor=none;top=0;left=0;bottom=0;right=0;overflow=hidden;labelBackgroundColor=none;fontColor=#000000;" parent="YGGrTB0Uita2elQhQ-9G-381" vertex="1">
          <mxGeometry width="63" height="20" as="geometry">
            <mxRectangle width="63" height="20" as="alternateBounds" />
          </mxGeometry>
        </mxCell>
        <mxCell id="YGGrTB0Uita2elQhQ-9G-383" value="" style="shape=partialRectangle;html=1;whiteSpace=wrap;connectable=0;fillColor=none;top=0;left=0;bottom=0;right=0;overflow=hidden;labelBackgroundColor=none;fontColor=#000000;" parent="YGGrTB0Uita2elQhQ-9G-381" vertex="1">
          <mxGeometry x="63" width="130" height="20" as="geometry">
            <mxRectangle width="130" height="20" as="alternateBounds" />
          </mxGeometry>
        </mxCell>
        <mxCell id="YGGrTB0Uita2elQhQ-9G-393" value="资讯embedding（t）" style="shape=table;startSize=30;container=1;collapsible=0;childLayout=tableLayout;fontStyle=1;align=center;labelBackgroundColor=none;fontColor=#000000;" parent="1" vertex="1">
          <mxGeometry x="932" y="1116.25" width="211" height="90" as="geometry" />
        </mxCell>
        <mxCell id="YGGrTB0Uita2elQhQ-9G-394" value="" style="shape=tableRow;horizontal=0;startSize=0;swimlaneHead=0;swimlaneBody=0;top=0;left=0;bottom=0;right=0;collapsible=0;dropTarget=0;fillColor=none;points=[[0,0.5],[1,0.5]];portConstraint=eastwest;labelBackgroundColor=none;fontColor=#000000;" parent="YGGrTB0Uita2elQhQ-9G-393" vertex="1">
          <mxGeometry y="30" width="211" height="19" as="geometry" />
        </mxCell>
        <mxCell id="YGGrTB0Uita2elQhQ-9G-395" value="&lt;span style=&quot;font-weight: bold;&quot;&gt;article_id&lt;/span&gt;" style="shape=partialRectangle;html=1;whiteSpace=wrap;connectable=0;fillColor=none;top=0;left=0;bottom=0;right=0;overflow=hidden;labelBackgroundColor=none;fontColor=#000000;" parent="YGGrTB0Uita2elQhQ-9G-394" vertex="1">
          <mxGeometry width="84" height="19" as="geometry">
            <mxRectangle width="84" height="19" as="alternateBounds" />
          </mxGeometry>
        </mxCell>
        <mxCell id="YGGrTB0Uita2elQhQ-9G-396" value="&lt;b&gt;article_embedding&lt;/b&gt;" style="shape=partialRectangle;html=1;whiteSpace=wrap;connectable=0;fillColor=none;top=0;left=0;bottom=0;right=0;overflow=hidden;labelBackgroundColor=none;fontColor=#000000;" parent="YGGrTB0Uita2elQhQ-9G-394" vertex="1">
          <mxGeometry x="84" width="127" height="19" as="geometry">
            <mxRectangle width="127" height="19" as="alternateBounds" />
          </mxGeometry>
        </mxCell>
        <mxCell id="YGGrTB0Uita2elQhQ-9G-397" value="" style="shape=tableRow;horizontal=0;startSize=0;swimlaneHead=0;swimlaneBody=0;top=0;left=0;bottom=0;right=0;collapsible=0;dropTarget=0;fillColor=none;points=[[0,0.5],[1,0.5]];portConstraint=eastwest;labelBackgroundColor=none;fontColor=#000000;" parent="YGGrTB0Uita2elQhQ-9G-393" vertex="1">
          <mxGeometry y="49" width="211" height="21" as="geometry" />
        </mxCell>
        <mxCell id="YGGrTB0Uita2elQhQ-9G-398" value="" style="shape=partialRectangle;html=1;whiteSpace=wrap;connectable=0;fillColor=none;top=0;left=0;bottom=0;right=0;overflow=hidden;labelBackgroundColor=none;fontColor=#000000;" parent="YGGrTB0Uita2elQhQ-9G-397" vertex="1">
          <mxGeometry width="84" height="21" as="geometry">
            <mxRectangle width="84" height="21" as="alternateBounds" />
          </mxGeometry>
        </mxCell>
        <mxCell id="YGGrTB0Uita2elQhQ-9G-399" value="" style="shape=partialRectangle;html=1;whiteSpace=wrap;connectable=0;fillColor=none;top=0;left=0;bottom=0;right=0;overflow=hidden;labelBackgroundColor=none;fontColor=#000000;" parent="YGGrTB0Uita2elQhQ-9G-397" vertex="1">
          <mxGeometry x="84" width="127" height="21" as="geometry">
            <mxRectangle width="127" height="21" as="alternateBounds" />
          </mxGeometry>
        </mxCell>
        <mxCell id="YGGrTB0Uita2elQhQ-9G-400" value="" style="shape=tableRow;horizontal=0;startSize=0;swimlaneHead=0;swimlaneBody=0;top=0;left=0;bottom=0;right=0;collapsible=0;dropTarget=0;fillColor=none;points=[[0,0.5],[1,0.5]];portConstraint=eastwest;labelBackgroundColor=none;fontColor=#000000;" parent="YGGrTB0Uita2elQhQ-9G-393" vertex="1">
          <mxGeometry y="70" width="211" height="20" as="geometry" />
        </mxCell>
        <mxCell id="YGGrTB0Uita2elQhQ-9G-401" value="" style="shape=partialRectangle;html=1;whiteSpace=wrap;connectable=0;fillColor=none;top=0;left=0;bottom=0;right=0;overflow=hidden;labelBackgroundColor=none;fontColor=#000000;" parent="YGGrTB0Uita2elQhQ-9G-400" vertex="1">
          <mxGeometry width="84" height="20" as="geometry">
            <mxRectangle width="84" height="20" as="alternateBounds" />
          </mxGeometry>
        </mxCell>
        <mxCell id="YGGrTB0Uita2elQhQ-9G-402" value="" style="shape=partialRectangle;html=1;whiteSpace=wrap;connectable=0;fillColor=none;top=0;left=0;bottom=0;right=0;overflow=hidden;labelBackgroundColor=none;fontColor=#000000;" parent="YGGrTB0Uita2elQhQ-9G-400" vertex="1">
          <mxGeometry x="84" width="127" height="20" as="geometry">
            <mxRectangle width="127" height="20" as="alternateBounds" />
          </mxGeometry>
        </mxCell>
        <mxCell id="YGGrTB0Uita2elQhQ-9G-410" value="redis" style="shape=tapeData;whiteSpace=wrap;html=1;perimeter=ellipsePerimeter;labelBackgroundColor=none;fontColor=#000000;" parent="1" vertex="1">
          <mxGeometry x="1204" y="1175.75" width="69" height="69" as="geometry" />
        </mxCell>
        <mxCell id="YGGrTB0Uita2elQhQ-9G-430" style="edgeStyle=orthogonalEdgeStyle;rounded=0;orthogonalLoop=1;jettySize=auto;html=1;exitX=1;exitY=0.5;exitDx=0;exitDy=0;entryX=0;entryY=0.5;entryDx=0;entryDy=0;fontColor=#000000;" parent="1" source="YGGrTB0Uita2elQhQ-9G-417" target="YGGrTB0Uita2elQhQ-9G-419" edge="1">
          <mxGeometry relative="1" as="geometry" />
        </mxCell>
        <mxCell id="YGGrTB0Uita2elQhQ-9G-417" value="行为埋点" style="shape=tapeData;whiteSpace=wrap;html=1;perimeter=ellipsePerimeter;labelBackgroundColor=none;fontColor=#000000;" parent="1" vertex="1">
          <mxGeometry x="175.5" y="1244" width="69" height="69" as="geometry" />
        </mxCell>
        <mxCell id="YGGrTB0Uita2elQhQ-9G-418" value="用户行为关键词表（t）" style="shape=table;startSize=30;container=1;collapsible=0;childLayout=tableLayout;fontStyle=1;align=center;labelBackgroundColor=none;fontColor=#000000;" parent="1" vertex="1">
          <mxGeometry x="280" y="1239" width="193.14285714285717" height="90" as="geometry" />
        </mxCell>
        <mxCell id="YGGrTB0Uita2elQhQ-9G-419" value="" style="shape=tableRow;horizontal=0;startSize=0;swimlaneHead=0;swimlaneBody=0;top=0;left=0;bottom=0;right=0;collapsible=0;dropTarget=0;fillColor=none;points=[[0,0.5],[1,0.5]];portConstraint=eastwest;labelBackgroundColor=none;fontColor=#000000;" parent="YGGrTB0Uita2elQhQ-9G-418" vertex="1">
          <mxGeometry y="30" width="193.14285714285717" height="19" as="geometry" />
        </mxCell>
        <mxCell id="YGGrTB0Uita2elQhQ-9G-420" value="&lt;span style=&quot;font-weight: bold;&quot;&gt;user_id&lt;/span&gt;" style="shape=partialRectangle;html=1;whiteSpace=wrap;connectable=0;fillColor=none;top=0;left=0;bottom=0;right=0;overflow=hidden;labelBackgroundColor=none;fontColor=#000000;" parent="YGGrTB0Uita2elQhQ-9G-419" vertex="1">
          <mxGeometry width="65" height="19" as="geometry">
            <mxRectangle width="65" height="19" as="alternateBounds" />
          </mxGeometry>
        </mxCell>
        <mxCell id="YGGrTB0Uita2elQhQ-9G-421" value="&lt;b&gt;user_keywords_set&lt;/b&gt;" style="shape=partialRectangle;html=1;whiteSpace=wrap;connectable=0;fillColor=none;top=0;left=0;bottom=0;right=0;overflow=hidden;labelBackgroundColor=none;fontColor=#000000;" parent="YGGrTB0Uita2elQhQ-9G-419" vertex="1">
          <mxGeometry x="65" width="128" height="19" as="geometry">
            <mxRectangle width="128" height="19" as="alternateBounds" />
          </mxGeometry>
        </mxCell>
        <mxCell id="YGGrTB0Uita2elQhQ-9G-422" value="" style="shape=tableRow;horizontal=0;startSize=0;swimlaneHead=0;swimlaneBody=0;top=0;left=0;bottom=0;right=0;collapsible=0;dropTarget=0;fillColor=none;points=[[0,0.5],[1,0.5]];portConstraint=eastwest;labelBackgroundColor=none;fontColor=#000000;" parent="YGGrTB0Uita2elQhQ-9G-418" vertex="1">
          <mxGeometry y="49" width="193.14285714285717" height="21" as="geometry" />
        </mxCell>
        <mxCell id="YGGrTB0Uita2elQhQ-9G-423" value="" style="shape=partialRectangle;html=1;whiteSpace=wrap;connectable=0;fillColor=none;top=0;left=0;bottom=0;right=0;overflow=hidden;labelBackgroundColor=none;fontColor=#000000;" parent="YGGrTB0Uita2elQhQ-9G-422" vertex="1">
          <mxGeometry width="65" height="21" as="geometry">
            <mxRectangle width="65" height="21" as="alternateBounds" />
          </mxGeometry>
        </mxCell>
        <mxCell id="YGGrTB0Uita2elQhQ-9G-424" value="" style="shape=partialRectangle;html=1;whiteSpace=wrap;connectable=0;fillColor=none;top=0;left=0;bottom=0;right=0;overflow=hidden;labelBackgroundColor=none;fontColor=#000000;" parent="YGGrTB0Uita2elQhQ-9G-422" vertex="1">
          <mxGeometry x="65" width="128" height="21" as="geometry">
            <mxRectangle width="128" height="21" as="alternateBounds" />
          </mxGeometry>
        </mxCell>
        <mxCell id="YGGrTB0Uita2elQhQ-9G-425" value="" style="shape=tableRow;horizontal=0;startSize=0;swimlaneHead=0;swimlaneBody=0;top=0;left=0;bottom=0;right=0;collapsible=0;dropTarget=0;fillColor=none;points=[[0,0.5],[1,0.5]];portConstraint=eastwest;labelBackgroundColor=none;fontColor=#000000;" parent="YGGrTB0Uita2elQhQ-9G-418" vertex="1">
          <mxGeometry y="70" width="193.14285714285717" height="20" as="geometry" />
        </mxCell>
        <mxCell id="YGGrTB0Uita2elQhQ-9G-426" value="" style="shape=partialRectangle;html=1;whiteSpace=wrap;connectable=0;fillColor=none;top=0;left=0;bottom=0;right=0;overflow=hidden;labelBackgroundColor=none;fontColor=#000000;" parent="YGGrTB0Uita2elQhQ-9G-425" vertex="1">
          <mxGeometry width="65" height="20" as="geometry">
            <mxRectangle width="65" height="20" as="alternateBounds" />
          </mxGeometry>
        </mxCell>
        <mxCell id="YGGrTB0Uita2elQhQ-9G-427" value="" style="shape=partialRectangle;html=1;whiteSpace=wrap;connectable=0;fillColor=none;top=0;left=0;bottom=0;right=0;overflow=hidden;labelBackgroundColor=none;fontColor=#000000;" parent="YGGrTB0Uita2elQhQ-9G-425" vertex="1">
          <mxGeometry x="65" width="128" height="20" as="geometry">
            <mxRectangle width="128" height="20" as="alternateBounds" />
          </mxGeometry>
        </mxCell>
        <mxCell id="YGGrTB0Uita2elQhQ-9G-433" value="用户embedding（t）" style="shape=table;startSize=30;container=1;collapsible=0;childLayout=tableLayout;fontStyle=1;align=center;labelBackgroundColor=none;fontColor=#000000;" parent="1" vertex="1">
          <mxGeometry x="932" y="1231.75" width="211" height="90" as="geometry" />
        </mxCell>
        <mxCell id="YGGrTB0Uita2elQhQ-9G-434" value="" style="shape=tableRow;horizontal=0;startSize=0;swimlaneHead=0;swimlaneBody=0;top=0;left=0;bottom=0;right=0;collapsible=0;dropTarget=0;fillColor=none;points=[[0,0.5],[1,0.5]];portConstraint=eastwest;labelBackgroundColor=none;fontColor=#000000;" parent="YGGrTB0Uita2elQhQ-9G-433" vertex="1">
          <mxGeometry y="30" width="211" height="19" as="geometry" />
        </mxCell>
        <mxCell id="YGGrTB0Uita2elQhQ-9G-435" value="&lt;span style=&quot;font-weight: bold;&quot;&gt;user_id&lt;/span&gt;" style="shape=partialRectangle;html=1;whiteSpace=wrap;connectable=0;fillColor=none;top=0;left=0;bottom=0;right=0;overflow=hidden;labelBackgroundColor=none;fontColor=#000000;" parent="YGGrTB0Uita2elQhQ-9G-434" vertex="1">
          <mxGeometry width="84" height="19" as="geometry">
            <mxRectangle width="84" height="19" as="alternateBounds" />
          </mxGeometry>
        </mxCell>
        <mxCell id="YGGrTB0Uita2elQhQ-9G-436" value="&lt;b&gt;user_embedding&lt;/b&gt;" style="shape=partialRectangle;html=1;whiteSpace=wrap;connectable=0;fillColor=none;top=0;left=0;bottom=0;right=0;overflow=hidden;labelBackgroundColor=none;fontColor=#000000;" parent="YGGrTB0Uita2elQhQ-9G-434" vertex="1">
          <mxGeometry x="84" width="127" height="19" as="geometry">
            <mxRectangle width="127" height="19" as="alternateBounds" />
          </mxGeometry>
        </mxCell>
        <mxCell id="YGGrTB0Uita2elQhQ-9G-437" value="" style="shape=tableRow;horizontal=0;startSize=0;swimlaneHead=0;swimlaneBody=0;top=0;left=0;bottom=0;right=0;collapsible=0;dropTarget=0;fillColor=none;points=[[0,0.5],[1,0.5]];portConstraint=eastwest;labelBackgroundColor=none;fontColor=#000000;" parent="YGGrTB0Uita2elQhQ-9G-433" vertex="1">
          <mxGeometry y="49" width="211" height="21" as="geometry" />
        </mxCell>
        <mxCell id="YGGrTB0Uita2elQhQ-9G-438" value="" style="shape=partialRectangle;html=1;whiteSpace=wrap;connectable=0;fillColor=none;top=0;left=0;bottom=0;right=0;overflow=hidden;labelBackgroundColor=none;fontColor=#000000;" parent="YGGrTB0Uita2elQhQ-9G-437" vertex="1">
          <mxGeometry width="84" height="21" as="geometry">
            <mxRectangle width="84" height="21" as="alternateBounds" />
          </mxGeometry>
        </mxCell>
        <mxCell id="YGGrTB0Uita2elQhQ-9G-439" value="" style="shape=partialRectangle;html=1;whiteSpace=wrap;connectable=0;fillColor=none;top=0;left=0;bottom=0;right=0;overflow=hidden;labelBackgroundColor=none;fontColor=#000000;" parent="YGGrTB0Uita2elQhQ-9G-437" vertex="1">
          <mxGeometry x="84" width="127" height="21" as="geometry">
            <mxRectangle width="127" height="21" as="alternateBounds" />
          </mxGeometry>
        </mxCell>
        <mxCell id="YGGrTB0Uita2elQhQ-9G-440" value="" style="shape=tableRow;horizontal=0;startSize=0;swimlaneHead=0;swimlaneBody=0;top=0;left=0;bottom=0;right=0;collapsible=0;dropTarget=0;fillColor=none;points=[[0,0.5],[1,0.5]];portConstraint=eastwest;labelBackgroundColor=none;fontColor=#000000;" parent="YGGrTB0Uita2elQhQ-9G-433" vertex="1">
          <mxGeometry y="70" width="211" height="20" as="geometry" />
        </mxCell>
        <mxCell id="YGGrTB0Uita2elQhQ-9G-441" value="" style="shape=partialRectangle;html=1;whiteSpace=wrap;connectable=0;fillColor=none;top=0;left=0;bottom=0;right=0;overflow=hidden;labelBackgroundColor=none;fontColor=#000000;" parent="YGGrTB0Uita2elQhQ-9G-440" vertex="1">
          <mxGeometry width="84" height="20" as="geometry">
            <mxRectangle width="84" height="20" as="alternateBounds" />
          </mxGeometry>
        </mxCell>
        <mxCell id="YGGrTB0Uita2elQhQ-9G-442" value="" style="shape=partialRectangle;html=1;whiteSpace=wrap;connectable=0;fillColor=none;top=0;left=0;bottom=0;right=0;overflow=hidden;labelBackgroundColor=none;fontColor=#000000;" parent="YGGrTB0Uita2elQhQ-9G-440" vertex="1">
          <mxGeometry x="84" width="127" height="20" as="geometry">
            <mxRectangle width="127" height="20" as="alternateBounds" />
          </mxGeometry>
        </mxCell>
        <mxCell id="YGGrTB0Uita2elQhQ-9G-444" style="edgeStyle=orthogonalEdgeStyle;rounded=0;orthogonalLoop=1;jettySize=auto;html=1;exitX=1;exitY=0.5;exitDx=0;exitDy=0;entryX=0;entryY=0.651;entryDx=0;entryDy=0;entryPerimeter=0;fontColor=#000000;" parent="1" source="YGGrTB0Uita2elQhQ-9G-434" target="YGGrTB0Uita2elQhQ-9G-410" edge="1">
          <mxGeometry relative="1" as="geometry" />
        </mxCell>
        <mxCell id="YGGrTB0Uita2elQhQ-9G-471" style="edgeStyle=orthogonalEdgeStyle;rounded=0;orthogonalLoop=1;jettySize=auto;html=1;exitX=1;exitY=0.5;exitDx=0;exitDy=0;entryX=0;entryY=0.5;entryDx=0;entryDy=0;fontColor=#000000;" parent="1" source="YGGrTB0Uita2elQhQ-9G-394" target="YGGrTB0Uita2elQhQ-9G-410" edge="1">
          <mxGeometry relative="1" as="geometry" />
        </mxCell>
        <mxCell id="hBkT6UcEdp7coPNB_tJo-39" style="edgeStyle=orthogonalEdgeStyle;rounded=0;orthogonalLoop=1;jettySize=auto;html=1;exitX=1;exitY=0.5;exitDx=0;exitDy=0;entryX=0;entryY=0.25;entryDx=0;entryDy=0;" parent="1" source="YGGrTB0Uita2elQhQ-9G-375" target="YGGrTB0Uita2elQhQ-9G-360" edge="1">
          <mxGeometry relative="1" as="geometry" />
        </mxCell>
        <mxCell id="hBkT6UcEdp7coPNB_tJo-40" style="edgeStyle=orthogonalEdgeStyle;rounded=0;orthogonalLoop=1;jettySize=auto;html=1;exitX=1;exitY=0.5;exitDx=0;exitDy=0;entryX=0;entryY=0.75;entryDx=0;entryDy=0;" parent="1" source="YGGrTB0Uita2elQhQ-9G-419" target="YGGrTB0Uita2elQhQ-9G-360" edge="1">
          <mxGeometry relative="1" as="geometry" />
        </mxCell>
        <mxCell id="riNvDq7YMknwv2YMEXF6-39" style="edgeStyle=orthogonalEdgeStyle;rounded=0;orthogonalLoop=1;jettySize=auto;html=1;exitX=0.5;exitY=1;exitDx=0;exitDy=0;entryX=0.5;entryY=0;entryDx=0;entryDy=0;" edge="1" parent="1" source="riNvDq7YMknwv2YMEXF6-4" target="YGGrTB0Uita2elQhQ-9G-360">
          <mxGeometry relative="1" as="geometry">
            <Array as="points">
              <mxPoint x="1203" y="1079" />
              <mxPoint x="780" y="1079" />
            </Array>
          </mxGeometry>
        </mxCell>
        <mxCell id="riNvDq7YMknwv2YMEXF6-40" value="load" style="edgeLabel;html=1;align=center;verticalAlign=middle;resizable=0;points=[];" vertex="1" connectable="0" parent="riNvDq7YMknwv2YMEXF6-39">
          <mxGeometry x="0.8196" relative="1" as="geometry">
            <mxPoint as="offset" />
          </mxGeometry>
        </mxCell>
        <mxCell id="riNvDq7YMknwv2YMEXF6-4" value="redis" style="shape=tapeData;whiteSpace=wrap;html=1;perimeter=ellipsePerimeter;labelBackgroundColor=none;fontColor=#000000;" vertex="1" parent="1">
          <mxGeometry x="1168" y="964.25" width="69" height="69" as="geometry" />
        </mxCell>
        <mxCell id="riNvDq7YMknwv2YMEXF6-21" value="keyword embedding结果（temp）" style="shape=table;startSize=30;container=1;collapsible=0;childLayout=tableLayout;fontStyle=1;align=center;labelBackgroundColor=none;fontColor=#000000;" vertex="1" parent="1">
          <mxGeometry x="844" y="960" width="216" height="90" as="geometry" />
        </mxCell>
        <mxCell id="riNvDq7YMknwv2YMEXF6-22" value="" style="shape=tableRow;horizontal=0;startSize=0;swimlaneHead=0;swimlaneBody=0;top=0;left=0;bottom=0;right=0;collapsible=0;dropTarget=0;fillColor=none;points=[[0,0.5],[1,0.5]];portConstraint=eastwest;labelBackgroundColor=none;fontColor=#000000;" vertex="1" parent="riNvDq7YMknwv2YMEXF6-21">
          <mxGeometry y="30" width="216" height="19" as="geometry" />
        </mxCell>
        <mxCell id="riNvDq7YMknwv2YMEXF6-23" value="&lt;b&gt;keyword&lt;/b&gt;" style="shape=partialRectangle;html=1;whiteSpace=wrap;connectable=0;fillColor=none;top=0;left=0;bottom=0;right=0;overflow=hidden;labelBackgroundColor=none;fontColor=#000000;" vertex="1" parent="riNvDq7YMknwv2YMEXF6-22">
          <mxGeometry width="79" height="19" as="geometry">
            <mxRectangle width="79" height="19" as="alternateBounds" />
          </mxGeometry>
        </mxCell>
        <mxCell id="riNvDq7YMknwv2YMEXF6-24" value="&lt;b&gt;keyword_embedding&lt;/b&gt;" style="shape=partialRectangle;html=1;whiteSpace=wrap;connectable=0;fillColor=none;top=0;left=0;bottom=0;right=0;overflow=hidden;labelBackgroundColor=none;fontColor=#000000;" vertex="1" parent="riNvDq7YMknwv2YMEXF6-22">
          <mxGeometry x="79" width="137" height="19" as="geometry">
            <mxRectangle width="137" height="19" as="alternateBounds" />
          </mxGeometry>
        </mxCell>
        <mxCell id="riNvDq7YMknwv2YMEXF6-26" value="" style="shape=tableRow;horizontal=0;startSize=0;swimlaneHead=0;swimlaneBody=0;top=0;left=0;bottom=0;right=0;collapsible=0;dropTarget=0;fillColor=none;points=[[0,0.5],[1,0.5]];portConstraint=eastwest;labelBackgroundColor=none;fontColor=#000000;" vertex="1" parent="riNvDq7YMknwv2YMEXF6-21">
          <mxGeometry y="49" width="216" height="21" as="geometry" />
        </mxCell>
        <mxCell id="riNvDq7YMknwv2YMEXF6-27" value="" style="shape=partialRectangle;html=1;whiteSpace=wrap;connectable=0;fillColor=none;top=0;left=0;bottom=0;right=0;overflow=hidden;labelBackgroundColor=none;fontColor=#000000;" vertex="1" parent="riNvDq7YMknwv2YMEXF6-26">
          <mxGeometry width="79" height="21" as="geometry">
            <mxRectangle width="79" height="21" as="alternateBounds" />
          </mxGeometry>
        </mxCell>
        <mxCell id="riNvDq7YMknwv2YMEXF6-28" value="" style="shape=partialRectangle;html=1;whiteSpace=wrap;connectable=0;fillColor=none;top=0;left=0;bottom=0;right=0;overflow=hidden;labelBackgroundColor=none;fontColor=#000000;" vertex="1" parent="riNvDq7YMknwv2YMEXF6-26">
          <mxGeometry x="79" width="137" height="21" as="geometry">
            <mxRectangle width="137" height="21" as="alternateBounds" />
          </mxGeometry>
        </mxCell>
        <mxCell id="riNvDq7YMknwv2YMEXF6-30" value="" style="shape=tableRow;horizontal=0;startSize=0;swimlaneHead=0;swimlaneBody=0;top=0;left=0;bottom=0;right=0;collapsible=0;dropTarget=0;fillColor=none;points=[[0,0.5],[1,0.5]];portConstraint=eastwest;labelBackgroundColor=none;fontColor=#000000;" vertex="1" parent="riNvDq7YMknwv2YMEXF6-21">
          <mxGeometry y="70" width="216" height="20" as="geometry" />
        </mxCell>
        <mxCell id="riNvDq7YMknwv2YMEXF6-31" value="" style="shape=partialRectangle;html=1;whiteSpace=wrap;connectable=0;fillColor=none;top=0;left=0;bottom=0;right=0;overflow=hidden;labelBackgroundColor=none;fontColor=#000000;" vertex="1" parent="riNvDq7YMknwv2YMEXF6-30">
          <mxGeometry width="79" height="20" as="geometry">
            <mxRectangle width="79" height="20" as="alternateBounds" />
          </mxGeometry>
        </mxCell>
        <mxCell id="riNvDq7YMknwv2YMEXF6-32" value="" style="shape=partialRectangle;html=1;whiteSpace=wrap;connectable=0;fillColor=none;top=0;left=0;bottom=0;right=0;overflow=hidden;labelBackgroundColor=none;fontColor=#000000;" vertex="1" parent="riNvDq7YMknwv2YMEXF6-30">
          <mxGeometry x="79" width="137" height="20" as="geometry">
            <mxRectangle width="137" height="20" as="alternateBounds" />
          </mxGeometry>
        </mxCell>
        <mxCell id="riNvDq7YMknwv2YMEXF6-35" style="edgeStyle=orthogonalEdgeStyle;rounded=0;orthogonalLoop=1;jettySize=auto;html=1;exitX=1;exitY=0.5;exitDx=0;exitDy=0;entryX=0;entryY=0.5;entryDx=0;entryDy=0;" edge="1" parent="1" source="riNvDq7YMknwv2YMEXF6-22" target="riNvDq7YMknwv2YMEXF6-4">
          <mxGeometry relative="1" as="geometry" />
        </mxCell>
        <mxCell id="riNvDq7YMknwv2YMEXF6-37" style="edgeStyle=orthogonalEdgeStyle;rounded=0;orthogonalLoop=1;jettySize=auto;html=1;exitX=1;exitY=0.5;exitDx=0;exitDy=0;entryX=0;entryY=0.5;entryDx=0;entryDy=0;" edge="1" parent="1" source="YGGrTB0Uita2elQhQ-9G-247" target="YGGrTB0Uita2elQhQ-9G-338">
          <mxGeometry relative="1" as="geometry" />
        </mxCell>
        <mxCell id="riNvDq7YMknwv2YMEXF6-41" style="edgeStyle=orthogonalEdgeStyle;rounded=0;orthogonalLoop=1;jettySize=auto;html=1;exitX=0.5;exitY=1;exitDx=0;exitDy=0;exitPerimeter=0;entryX=0;entryY=0.5;entryDx=0;entryDy=0;fontColor=#000000;" edge="1" parent="1" source="riNvDq7YMknwv2YMEXF6-43" target="riNvDq7YMknwv2YMEXF6-45">
          <mxGeometry relative="1" as="geometry" />
        </mxCell>
        <mxCell id="riNvDq7YMknwv2YMEXF6-42" style="edgeStyle=orthogonalEdgeStyle;rounded=0;orthogonalLoop=1;jettySize=auto;html=1;exitX=0.5;exitY=0;exitDx=0;exitDy=0;exitPerimeter=0;entryX=0;entryY=0.5;entryDx=0;entryDy=0;" edge="1" parent="1" source="riNvDq7YMknwv2YMEXF6-43" target="riNvDq7YMknwv2YMEXF6-55">
          <mxGeometry relative="1" as="geometry" />
        </mxCell>
        <mxCell id="riNvDq7YMknwv2YMEXF6-43" value="DB" style="shape=cylinder3;whiteSpace=wrap;html=1;boundedLbl=1;backgroundOutline=1;size=15;labelBackgroundColor=none;fontColor=#000000;" vertex="1" parent="1">
          <mxGeometry x="240.25" y="1510" width="60" height="60" as="geometry" />
        </mxCell>
        <mxCell id="riNvDq7YMknwv2YMEXF6-44" value="用户点击行为资讯序列表（T）" style="shape=table;startSize=30;container=1;collapsible=0;childLayout=tableLayout;fontStyle=1;align=center;labelBackgroundColor=none;fontColor=#000000;" vertex="1" parent="1">
          <mxGeometry x="335.75" y="1559" width="170" height="90" as="geometry" />
        </mxCell>
        <mxCell id="riNvDq7YMknwv2YMEXF6-45" value="" style="shape=tableRow;horizontal=0;startSize=0;swimlaneHead=0;swimlaneBody=0;top=0;left=0;bottom=0;right=0;collapsible=0;dropTarget=0;fillColor=none;points=[[0,0.5],[1,0.5]];portConstraint=eastwest;labelBackgroundColor=none;fontColor=#000000;" vertex="1" parent="riNvDq7YMknwv2YMEXF6-44">
          <mxGeometry y="30" width="170" height="19" as="geometry" />
        </mxCell>
        <mxCell id="riNvDq7YMknwv2YMEXF6-46" value="&lt;span style=&quot;font-weight: bold;&quot;&gt;user_id&lt;/span&gt;" style="shape=partialRectangle;html=1;whiteSpace=wrap;connectable=0;fillColor=none;top=0;left=0;bottom=0;right=0;overflow=hidden;labelBackgroundColor=none;fontColor=#000000;" vertex="1" parent="riNvDq7YMknwv2YMEXF6-45">
          <mxGeometry width="73" height="19" as="geometry">
            <mxRectangle width="73" height="19" as="alternateBounds" />
          </mxGeometry>
        </mxCell>
        <mxCell id="riNvDq7YMknwv2YMEXF6-47" value="&lt;b&gt;article_id_list&lt;/b&gt;" style="shape=partialRectangle;html=1;whiteSpace=wrap;connectable=0;fillColor=none;top=0;left=0;bottom=0;right=0;overflow=hidden;labelBackgroundColor=none;fontColor=#000000;" vertex="1" parent="riNvDq7YMknwv2YMEXF6-45">
          <mxGeometry x="73" width="97" height="19" as="geometry">
            <mxRectangle width="97" height="19" as="alternateBounds" />
          </mxGeometry>
        </mxCell>
        <mxCell id="riNvDq7YMknwv2YMEXF6-48" value="" style="shape=tableRow;horizontal=0;startSize=0;swimlaneHead=0;swimlaneBody=0;top=0;left=0;bottom=0;right=0;collapsible=0;dropTarget=0;fillColor=none;points=[[0,0.5],[1,0.5]];portConstraint=eastwest;labelBackgroundColor=none;fontColor=#000000;" vertex="1" parent="riNvDq7YMknwv2YMEXF6-44">
          <mxGeometry y="49" width="170" height="21" as="geometry" />
        </mxCell>
        <mxCell id="riNvDq7YMknwv2YMEXF6-49" value="" style="shape=partialRectangle;html=1;whiteSpace=wrap;connectable=0;fillColor=none;top=0;left=0;bottom=0;right=0;overflow=hidden;labelBackgroundColor=none;fontColor=#000000;" vertex="1" parent="riNvDq7YMknwv2YMEXF6-48">
          <mxGeometry width="73" height="21" as="geometry">
            <mxRectangle width="73" height="21" as="alternateBounds" />
          </mxGeometry>
        </mxCell>
        <mxCell id="riNvDq7YMknwv2YMEXF6-50" value="" style="shape=partialRectangle;html=1;whiteSpace=wrap;connectable=0;fillColor=none;top=0;left=0;bottom=0;right=0;overflow=hidden;labelBackgroundColor=none;fontColor=#000000;" vertex="1" parent="riNvDq7YMknwv2YMEXF6-48">
          <mxGeometry x="73" width="97" height="21" as="geometry">
            <mxRectangle width="97" height="21" as="alternateBounds" />
          </mxGeometry>
        </mxCell>
        <mxCell id="riNvDq7YMknwv2YMEXF6-51" value="" style="shape=tableRow;horizontal=0;startSize=0;swimlaneHead=0;swimlaneBody=0;top=0;left=0;bottom=0;right=0;collapsible=0;dropTarget=0;fillColor=none;points=[[0,0.5],[1,0.5]];portConstraint=eastwest;labelBackgroundColor=none;fontColor=#000000;" vertex="1" parent="riNvDq7YMknwv2YMEXF6-44">
          <mxGeometry y="70" width="170" height="20" as="geometry" />
        </mxCell>
        <mxCell id="riNvDq7YMknwv2YMEXF6-52" value="" style="shape=partialRectangle;html=1;whiteSpace=wrap;connectable=0;fillColor=none;top=0;left=0;bottom=0;right=0;overflow=hidden;labelBackgroundColor=none;fontColor=#000000;" vertex="1" parent="riNvDq7YMknwv2YMEXF6-51">
          <mxGeometry width="73" height="20" as="geometry">
            <mxRectangle width="73" height="20" as="alternateBounds" />
          </mxGeometry>
        </mxCell>
        <mxCell id="riNvDq7YMknwv2YMEXF6-53" value="" style="shape=partialRectangle;html=1;whiteSpace=wrap;connectable=0;fillColor=none;top=0;left=0;bottom=0;right=0;overflow=hidden;labelBackgroundColor=none;fontColor=#000000;" vertex="1" parent="riNvDq7YMknwv2YMEXF6-51">
          <mxGeometry x="73" width="97" height="20" as="geometry">
            <mxRectangle width="97" height="20" as="alternateBounds" />
          </mxGeometry>
        </mxCell>
        <mxCell id="riNvDq7YMknwv2YMEXF6-54" value="资讯关键词表（T）" style="shape=table;startSize=30;container=1;collapsible=0;childLayout=tableLayout;fontStyle=1;align=center;labelBackgroundColor=none;fontColor=#000000;" vertex="1" parent="1">
          <mxGeometry x="333.86" y="1423" width="186.9999999999999" height="90" as="geometry" />
        </mxCell>
        <mxCell id="riNvDq7YMknwv2YMEXF6-55" value="" style="shape=tableRow;horizontal=0;startSize=0;swimlaneHead=0;swimlaneBody=0;top=0;left=0;bottom=0;right=0;collapsible=0;dropTarget=0;fillColor=none;points=[[0,0.5],[1,0.5]];portConstraint=eastwest;labelBackgroundColor=none;fontColor=#000000;" vertex="1" parent="riNvDq7YMknwv2YMEXF6-54">
          <mxGeometry y="30" width="186.9999999999999" height="19" as="geometry" />
        </mxCell>
        <mxCell id="riNvDq7YMknwv2YMEXF6-56" value="&lt;span style=&quot;font-weight: bold;&quot;&gt;article_id&lt;/span&gt;" style="shape=partialRectangle;html=1;whiteSpace=wrap;connectable=0;fillColor=none;top=0;left=0;bottom=0;right=0;overflow=hidden;labelBackgroundColor=none;fontColor=#000000;" vertex="1" parent="riNvDq7YMknwv2YMEXF6-55">
          <mxGeometry width="61" height="19" as="geometry">
            <mxRectangle width="61" height="19" as="alternateBounds" />
          </mxGeometry>
        </mxCell>
        <mxCell id="riNvDq7YMknwv2YMEXF6-57" value="&lt;span style=&quot;font-weight: bold;&quot;&gt;article_&lt;/span&gt;&lt;span style=&quot;font-weight: bold;&quot;&gt;keywords_set&lt;/span&gt;" style="shape=partialRectangle;html=1;whiteSpace=wrap;connectable=0;fillColor=none;top=0;left=0;bottom=0;right=0;overflow=hidden;labelBackgroundColor=none;fontColor=#000000;" vertex="1" parent="riNvDq7YMknwv2YMEXF6-55">
          <mxGeometry x="61" width="126" height="19" as="geometry">
            <mxRectangle width="126" height="19" as="alternateBounds" />
          </mxGeometry>
        </mxCell>
        <mxCell id="riNvDq7YMknwv2YMEXF6-58" value="" style="shape=tableRow;horizontal=0;startSize=0;swimlaneHead=0;swimlaneBody=0;top=0;left=0;bottom=0;right=0;collapsible=0;dropTarget=0;fillColor=none;points=[[0,0.5],[1,0.5]];portConstraint=eastwest;labelBackgroundColor=none;fontColor=#000000;" vertex="1" parent="riNvDq7YMknwv2YMEXF6-54">
          <mxGeometry y="49" width="186.9999999999999" height="21" as="geometry" />
        </mxCell>
        <mxCell id="riNvDq7YMknwv2YMEXF6-59" value="" style="shape=partialRectangle;html=1;whiteSpace=wrap;connectable=0;fillColor=none;top=0;left=0;bottom=0;right=0;overflow=hidden;labelBackgroundColor=none;fontColor=#000000;" vertex="1" parent="riNvDq7YMknwv2YMEXF6-58">
          <mxGeometry width="61" height="21" as="geometry">
            <mxRectangle width="61" height="21" as="alternateBounds" />
          </mxGeometry>
        </mxCell>
        <mxCell id="riNvDq7YMknwv2YMEXF6-60" value="" style="shape=partialRectangle;html=1;whiteSpace=wrap;connectable=0;fillColor=none;top=0;left=0;bottom=0;right=0;overflow=hidden;labelBackgroundColor=none;fontColor=#000000;" vertex="1" parent="riNvDq7YMknwv2YMEXF6-58">
          <mxGeometry x="61" width="126" height="21" as="geometry">
            <mxRectangle width="126" height="21" as="alternateBounds" />
          </mxGeometry>
        </mxCell>
        <mxCell id="riNvDq7YMknwv2YMEXF6-61" value="" style="shape=tableRow;horizontal=0;startSize=0;swimlaneHead=0;swimlaneBody=0;top=0;left=0;bottom=0;right=0;collapsible=0;dropTarget=0;fillColor=none;points=[[0,0.5],[1,0.5]];portConstraint=eastwest;labelBackgroundColor=none;fontColor=#000000;" vertex="1" parent="riNvDq7YMknwv2YMEXF6-54">
          <mxGeometry y="70" width="186.9999999999999" height="20" as="geometry" />
        </mxCell>
        <mxCell id="riNvDq7YMknwv2YMEXF6-62" value="" style="shape=partialRectangle;html=1;whiteSpace=wrap;connectable=0;fillColor=none;top=0;left=0;bottom=0;right=0;overflow=hidden;labelBackgroundColor=none;fontColor=#000000;" vertex="1" parent="riNvDq7YMknwv2YMEXF6-61">
          <mxGeometry width="61" height="20" as="geometry">
            <mxRectangle width="61" height="20" as="alternateBounds" />
          </mxGeometry>
        </mxCell>
        <mxCell id="riNvDq7YMknwv2YMEXF6-63" value="" style="shape=partialRectangle;html=1;whiteSpace=wrap;connectable=0;fillColor=none;top=0;left=0;bottom=0;right=0;overflow=hidden;labelBackgroundColor=none;fontColor=#000000;" vertex="1" parent="riNvDq7YMknwv2YMEXF6-61">
          <mxGeometry x="61" width="126" height="20" as="geometry">
            <mxRectangle width="126" height="20" as="alternateBounds" />
          </mxGeometry>
        </mxCell>
        <mxCell id="riNvDq7YMknwv2YMEXF6-64" value="用户行为关键词表（样本集）" style="shape=table;startSize=30;container=1;collapsible=0;childLayout=tableLayout;fontStyle=1;align=center;labelBackgroundColor=none;fontColor=#000000;" vertex="1" parent="1">
          <mxGeometry x="578.75" y="1499" width="173.85294117647095" height="90" as="geometry" />
        </mxCell>
        <mxCell id="riNvDq7YMknwv2YMEXF6-65" value="" style="shape=tableRow;horizontal=0;startSize=0;swimlaneHead=0;swimlaneBody=0;top=0;left=0;bottom=0;right=0;collapsible=0;dropTarget=0;fillColor=none;points=[[0,0.5],[1,0.5]];portConstraint=eastwest;labelBackgroundColor=none;fontColor=#000000;" vertex="1" parent="riNvDq7YMknwv2YMEXF6-64">
          <mxGeometry y="30" width="173.85294117647095" height="19" as="geometry" />
        </mxCell>
        <mxCell id="riNvDq7YMknwv2YMEXF6-66" value="&lt;span style=&quot;font-weight: bold;&quot;&gt;user_id&lt;/span&gt;" style="shape=partialRectangle;html=1;whiteSpace=wrap;connectable=0;fillColor=none;top=0;left=0;bottom=0;right=0;overflow=hidden;labelBackgroundColor=none;fontColor=#000000;" vertex="1" parent="riNvDq7YMknwv2YMEXF6-65">
          <mxGeometry width="55" height="19" as="geometry">
            <mxRectangle width="55" height="19" as="alternateBounds" />
          </mxGeometry>
        </mxCell>
        <mxCell id="riNvDq7YMknwv2YMEXF6-67" value="&lt;b&gt;user_keywords_set&lt;/b&gt;" style="shape=partialRectangle;html=1;whiteSpace=wrap;connectable=0;fillColor=none;top=0;left=0;bottom=0;right=0;overflow=hidden;labelBackgroundColor=none;fontColor=#000000;" vertex="1" parent="riNvDq7YMknwv2YMEXF6-65">
          <mxGeometry x="55" width="119" height="19" as="geometry">
            <mxRectangle width="119" height="19" as="alternateBounds" />
          </mxGeometry>
        </mxCell>
        <mxCell id="riNvDq7YMknwv2YMEXF6-68" value="" style="shape=tableRow;horizontal=0;startSize=0;swimlaneHead=0;swimlaneBody=0;top=0;left=0;bottom=0;right=0;collapsible=0;dropTarget=0;fillColor=none;points=[[0,0.5],[1,0.5]];portConstraint=eastwest;labelBackgroundColor=none;fontColor=#000000;" vertex="1" parent="riNvDq7YMknwv2YMEXF6-64">
          <mxGeometry y="49" width="173.85294117647095" height="21" as="geometry" />
        </mxCell>
        <mxCell id="riNvDq7YMknwv2YMEXF6-69" value="" style="shape=partialRectangle;html=1;whiteSpace=wrap;connectable=0;fillColor=none;top=0;left=0;bottom=0;right=0;overflow=hidden;labelBackgroundColor=none;fontColor=#000000;" vertex="1" parent="riNvDq7YMknwv2YMEXF6-68">
          <mxGeometry width="55" height="21" as="geometry">
            <mxRectangle width="55" height="21" as="alternateBounds" />
          </mxGeometry>
        </mxCell>
        <mxCell id="riNvDq7YMknwv2YMEXF6-70" value="" style="shape=partialRectangle;html=1;whiteSpace=wrap;connectable=0;fillColor=none;top=0;left=0;bottom=0;right=0;overflow=hidden;labelBackgroundColor=none;fontColor=#000000;" vertex="1" parent="riNvDq7YMknwv2YMEXF6-68">
          <mxGeometry x="55" width="119" height="21" as="geometry">
            <mxRectangle width="119" height="21" as="alternateBounds" />
          </mxGeometry>
        </mxCell>
        <mxCell id="riNvDq7YMknwv2YMEXF6-71" value="" style="shape=tableRow;horizontal=0;startSize=0;swimlaneHead=0;swimlaneBody=0;top=0;left=0;bottom=0;right=0;collapsible=0;dropTarget=0;fillColor=none;points=[[0,0.5],[1,0.5]];portConstraint=eastwest;labelBackgroundColor=none;fontColor=#000000;" vertex="1" parent="riNvDq7YMknwv2YMEXF6-64">
          <mxGeometry y="70" width="173.85294117647095" height="20" as="geometry" />
        </mxCell>
        <mxCell id="riNvDq7YMknwv2YMEXF6-72" value="" style="shape=partialRectangle;html=1;whiteSpace=wrap;connectable=0;fillColor=none;top=0;left=0;bottom=0;right=0;overflow=hidden;labelBackgroundColor=none;fontColor=#000000;" vertex="1" parent="riNvDq7YMknwv2YMEXF6-71">
          <mxGeometry width="55" height="20" as="geometry">
            <mxRectangle width="55" height="20" as="alternateBounds" />
          </mxGeometry>
        </mxCell>
        <mxCell id="riNvDq7YMknwv2YMEXF6-73" value="" style="shape=partialRectangle;html=1;whiteSpace=wrap;connectable=0;fillColor=none;top=0;left=0;bottom=0;right=0;overflow=hidden;labelBackgroundColor=none;fontColor=#000000;" vertex="1" parent="riNvDq7YMknwv2YMEXF6-71">
          <mxGeometry x="55" width="119" height="20" as="geometry">
            <mxRectangle width="119" height="20" as="alternateBounds" />
          </mxGeometry>
        </mxCell>
        <mxCell id="riNvDq7YMknwv2YMEXF6-74" style="edgeStyle=orthogonalEdgeStyle;rounded=0;orthogonalLoop=1;jettySize=auto;html=1;exitX=1;exitY=0.5;exitDx=0;exitDy=0;entryX=0;entryY=0.5;entryDx=0;entryDy=0;" edge="1" parent="1" source="riNvDq7YMknwv2YMEXF6-75" target="riNvDq7YMknwv2YMEXF6-65">
          <mxGeometry relative="1" as="geometry" />
        </mxCell>
        <mxCell id="riNvDq7YMknwv2YMEXF6-75" value="join" style="ellipse;whiteSpace=wrap;html=1;aspect=fixed;labelBackgroundColor=none;fontColor=#000000;" vertex="1" parent="1">
          <mxGeometry x="531.75" y="1523" width="29.5" height="29.5" as="geometry" />
        </mxCell>
        <mxCell id="riNvDq7YMknwv2YMEXF6-76" style="edgeStyle=orthogonalEdgeStyle;rounded=0;orthogonalLoop=1;jettySize=auto;html=1;exitX=1;exitY=0.5;exitDx=0;exitDy=0;entryX=0.5;entryY=0;entryDx=0;entryDy=0;fontColor=#000000;" edge="1" parent="1" source="riNvDq7YMknwv2YMEXF6-55" target="riNvDq7YMknwv2YMEXF6-75">
          <mxGeometry relative="1" as="geometry" />
        </mxCell>
        <mxCell id="riNvDq7YMknwv2YMEXF6-77" style="edgeStyle=orthogonalEdgeStyle;rounded=0;orthogonalLoop=1;jettySize=auto;html=1;exitX=1;exitY=0.5;exitDx=0;exitDy=0;entryX=0.5;entryY=1;entryDx=0;entryDy=0;fontColor=#000000;" edge="1" parent="1" source="riNvDq7YMknwv2YMEXF6-48" target="riNvDq7YMknwv2YMEXF6-75">
          <mxGeometry relative="1" as="geometry" />
        </mxCell>
        <mxCell id="riNvDq7YMknwv2YMEXF6-78" style="edgeStyle=orthogonalEdgeStyle;rounded=0;orthogonalLoop=1;jettySize=auto;html=1;exitX=1;exitY=0.5;exitDx=0;exitDy=0;" edge="1" parent="1" source="riNvDq7YMknwv2YMEXF6-79" target="riNvDq7YMknwv2YMEXF6-136">
          <mxGeometry relative="1" as="geometry" />
        </mxCell>
        <mxCell id="riNvDq7YMknwv2YMEXF6-79" value="training server" style="icon;html=1;image=img/clipart/Gear_128x128.png;labelBackgroundColor=none;fontColor=#000000;" vertex="1" parent="1">
          <mxGeometry x="799.75" y="1507.75" width="60" height="60" as="geometry" />
        </mxCell>
        <mxCell id="riNvDq7YMknwv2YMEXF6-134" value="redis" style="shape=tapeData;whiteSpace=wrap;html=1;perimeter=ellipsePerimeter;labelBackgroundColor=none;fontColor=#000000;" vertex="1" parent="1">
          <mxGeometry x="1148" y="1503.25" width="69" height="69" as="geometry" />
        </mxCell>
        <mxCell id="riNvDq7YMknwv2YMEXF6-135" value="keyword embedding结果（temp）" style="shape=table;startSize=30;container=1;collapsible=0;childLayout=tableLayout;fontStyle=1;align=center;labelBackgroundColor=none;fontColor=#000000;" vertex="1" parent="1">
          <mxGeometry x="890" y="1499" width="229.25" height="89" as="geometry" />
        </mxCell>
        <mxCell id="riNvDq7YMknwv2YMEXF6-136" value="" style="shape=tableRow;horizontal=0;startSize=0;swimlaneHead=0;swimlaneBody=0;top=0;left=0;bottom=0;right=0;collapsible=0;dropTarget=0;fillColor=none;points=[[0,0.5],[1,0.5]];portConstraint=eastwest;labelBackgroundColor=none;fontColor=#000000;" vertex="1" parent="riNvDq7YMknwv2YMEXF6-135">
          <mxGeometry y="30" width="229.25" height="19" as="geometry" />
        </mxCell>
        <mxCell id="riNvDq7YMknwv2YMEXF6-137" value="&lt;span style=&quot;font-weight: bold;&quot;&gt;keyword&lt;/span&gt;" style="shape=partialRectangle;html=1;whiteSpace=wrap;connectable=0;fillColor=none;top=0;left=0;bottom=0;right=0;overflow=hidden;labelBackgroundColor=none;fontColor=#000000;" vertex="1" parent="riNvDq7YMknwv2YMEXF6-136">
          <mxGeometry width="98" height="19" as="geometry">
            <mxRectangle width="98" height="19" as="alternateBounds" />
          </mxGeometry>
        </mxCell>
        <mxCell id="riNvDq7YMknwv2YMEXF6-138" value="&lt;b&gt;keyword_embedding&lt;/b&gt;" style="shape=partialRectangle;html=1;whiteSpace=wrap;connectable=0;fillColor=none;top=0;left=0;bottom=0;right=0;overflow=hidden;labelBackgroundColor=none;fontColor=#000000;" vertex="1" parent="riNvDq7YMknwv2YMEXF6-136">
          <mxGeometry x="98" width="131" height="19" as="geometry">
            <mxRectangle width="131" height="19" as="alternateBounds" />
          </mxGeometry>
        </mxCell>
        <mxCell id="riNvDq7YMknwv2YMEXF6-140" value="" style="shape=tableRow;horizontal=0;startSize=0;swimlaneHead=0;swimlaneBody=0;top=0;left=0;bottom=0;right=0;collapsible=0;dropTarget=0;fillColor=none;points=[[0,0.5],[1,0.5]];portConstraint=eastwest;labelBackgroundColor=none;fontColor=#000000;" vertex="1" parent="riNvDq7YMknwv2YMEXF6-135">
          <mxGeometry y="49" width="229.25" height="20" as="geometry" />
        </mxCell>
        <mxCell id="riNvDq7YMknwv2YMEXF6-141" value="" style="shape=partialRectangle;html=1;whiteSpace=wrap;connectable=0;fillColor=none;top=0;left=0;bottom=0;right=0;overflow=hidden;labelBackgroundColor=none;fontColor=#000000;" vertex="1" parent="riNvDq7YMknwv2YMEXF6-140">
          <mxGeometry width="98" height="20" as="geometry">
            <mxRectangle width="98" height="20" as="alternateBounds" />
          </mxGeometry>
        </mxCell>
        <mxCell id="riNvDq7YMknwv2YMEXF6-142" value="" style="shape=partialRectangle;html=1;whiteSpace=wrap;connectable=0;fillColor=none;top=0;left=0;bottom=0;right=0;overflow=hidden;labelBackgroundColor=none;fontColor=#000000;" vertex="1" parent="riNvDq7YMknwv2YMEXF6-140">
          <mxGeometry x="98" width="131" height="20" as="geometry">
            <mxRectangle width="131" height="20" as="alternateBounds" />
          </mxGeometry>
        </mxCell>
        <mxCell id="riNvDq7YMknwv2YMEXF6-144" value="" style="shape=tableRow;horizontal=0;startSize=0;swimlaneHead=0;swimlaneBody=0;top=0;left=0;bottom=0;right=0;collapsible=0;dropTarget=0;fillColor=none;points=[[0,0.5],[1,0.5]];portConstraint=eastwest;labelBackgroundColor=none;fontColor=#000000;" vertex="1" parent="riNvDq7YMknwv2YMEXF6-135">
          <mxGeometry y="69" width="229.25" height="20" as="geometry" />
        </mxCell>
        <mxCell id="riNvDq7YMknwv2YMEXF6-145" value="" style="shape=partialRectangle;html=1;whiteSpace=wrap;connectable=0;fillColor=none;top=0;left=0;bottom=0;right=0;overflow=hidden;labelBackgroundColor=none;fontColor=#000000;" vertex="1" parent="riNvDq7YMknwv2YMEXF6-144">
          <mxGeometry width="98" height="20" as="geometry">
            <mxRectangle width="98" height="20" as="alternateBounds" />
          </mxGeometry>
        </mxCell>
        <mxCell id="riNvDq7YMknwv2YMEXF6-146" value="" style="shape=partialRectangle;html=1;whiteSpace=wrap;connectable=0;fillColor=none;top=0;left=0;bottom=0;right=0;overflow=hidden;labelBackgroundColor=none;fontColor=#000000;" vertex="1" parent="riNvDq7YMknwv2YMEXF6-144">
          <mxGeometry x="98" width="131" height="20" as="geometry">
            <mxRectangle width="131" height="20" as="alternateBounds" />
          </mxGeometry>
        </mxCell>
        <mxCell id="riNvDq7YMknwv2YMEXF6-148" style="edgeStyle=orthogonalEdgeStyle;rounded=0;orthogonalLoop=1;jettySize=auto;html=1;exitX=1;exitY=0.5;exitDx=0;exitDy=0;entryX=0;entryY=0.5;entryDx=0;entryDy=0;" edge="1" parent="1" source="riNvDq7YMknwv2YMEXF6-136" target="riNvDq7YMknwv2YMEXF6-134">
          <mxGeometry relative="1" as="geometry" />
        </mxCell>
        <mxCell id="riNvDq7YMknwv2YMEXF6-149" style="edgeStyle=orthogonalEdgeStyle;rounded=0;orthogonalLoop=1;jettySize=auto;html=1;exitX=1;exitY=0.5;exitDx=0;exitDy=0;entryX=0;entryY=0.5;entryDx=0;entryDy=0;" edge="1" parent="1" source="riNvDq7YMknwv2YMEXF6-65" target="riNvDq7YMknwv2YMEXF6-79">
          <mxGeometry relative="1" as="geometry" />
        </mxCell>
      </root>
    </mxGraphModel>
  </diagram>
</mxfile>
